<?xml version="1.0" encoding="utf-8"?>
<!-- Generator: Adobe Illustrator 18.1.0, SVG Export Plug-In . SVG Version: 6.00 Build 0)  -->
<svg version="1.1" id="Layer_1" xmlns="http://www.w3.org/2000/svg" xmlns:xlink="http://www.w3.org/1999/xlink" x="0px" y="0px"
	 viewBox="0 0 27 21.9" enable-background="new 0 0 27 21.9" xml:space="preserve">
<path fill="#FFFFFF" d="M22.3,17.7c0,1.2-0.9,2.1-2.1,2.1H6.8c-1.2,0-2.1-0.9-2.1-2.1v-9h3.3C7.6,9.4,7.5,10.2,7.5,11
	c0,3.3,2.7,6,6,6c3.3,0,6-2.7,6-6c0-0.8-0.2-1.6-0.4-2.2h3.3V17.7z M10.4,8.7c0.7-1,1.8-1.6,3.1-1.6c1.3,0,2.4,0.6,3.1,1.6
	c0.5,0.6,0.7,1.4,0.7,2.2c0,2.1-1.7,3.9-3.9,3.9c-2.1,0-3.9-1.7-3.9-3.9C9.6,10.1,9.9,9.3,10.4,8.7 M21.4,2.5l0.5,0V3v3.2l-3.7,0
	l0-3.7L21.4,2.5z M20.2,0H6.8C4.4,0,2.5,1.9,2.5,4.2v4.5v9c0,2.3,1.9,4.2,4.2,4.2h13.4c2.3,0,4.2-1.9,4.2-4.2v-9V4.2
	C24.4,1.9,22.5,0,20.2,0"/>
</svg>
