<?xml version="1.0" encoding="utf-8"?>
<!-- Generator: Adobe Illustrator 18.1.0, SVG Export Plug-In . SVG Version: 6.00 Build 0)  -->
<svg version="1.1" id="Layer_1" xmlns="http://www.w3.org/2000/svg" xmlns:xlink="http://www.w3.org/1999/xlink" x="0px" y="0px"
	 viewBox="0 0 300 300" enable-background="new 0 0 300 300" xml:space="preserve">
<path fill="#141414" d="M247.8,225c0,13.3-10,23.3-23.3,23.3H75.6c-13.3,0-23.3-10-23.3-23.3V125h36.7c-4.4,7.8-5.6,16.7-5.6,25.6
	c0,36.7,30,66.7,66.7,66.7s66.7-30,66.7-66.7c0-8.9-2.2-17.8-4.4-24.4h36.7V225H247.8z M115.6,125c7.8-11.1,20-17.8,34.4-17.8
	c14.4,0,26.7,6.7,34.4,17.8c5.6,6.7,7.8,15.6,7.8,24.4c0,23.3-18.9,43.3-43.3,43.3c-23.3,0-43.3-18.9-43.3-43.3
	C106.7,140.6,110,131.7,115.6,125 M237.8,56.1h5.6v5.6v35.6h-41.1V56.1L237.8,56.1z M224.4,28.3H75.6c-26.7,0-47.8,21.1-47.8,46.7
	v50v100c0,25.6,21.1,46.7,46.7,46.7h148.9c25.6,0,46.7-21.1,46.7-46.7V125V75C271.1,49.4,250,28.3,224.4,28.3"/>
</svg>
