<?xml version="1.0" encoding="utf-8"?>
<!-- Generator: Adobe Illustrator 18.1.0, SVG Export Plug-In . SVG Version: 6.00 Build 0)  -->
<svg version="1.1" id="Layer_1" xmlns="http://www.w3.org/2000/svg" xmlns:xlink="http://www.w3.org/1999/xlink" x="0px" y="0px"
	 viewBox="0 0 300 300" enable-background="new 0 0 300 300" xml:space="preserve">
<path fill="#141414" d="M300,57.2c-11.1,4.4-23.3,7.8-35.6,10c12.2-7.8,22.2-20,26.7-34.4c-12.2,6.7-24.4,12.2-38.9,14.4
	c-11.1-12.2-26.7-18.9-44.4-18.9c-34.4,0-61.1,27.8-61.1,61.1c0,4.4,0,10,1.1,14.4c-51.1-2.2-96.7-26.7-126.7-64.4
	c-5.6,8.9-8.9,20-8.9,31.1c0,21.1,11.1,40,27.8,51.1c-10,0-20-3.3-27.8-7.8v1.1c0,30,21.1,54.4,48.9,60c-5.6,1.1-11.1,2.2-16.7,2.2
	c-4.4,0-7.8,0-11.1-1.1c7.8,24.4,30,42.2,57.8,42.2C70,235,43.3,245,14.4,245c-4.4,0-10,0-14.4-1.1c26.7,17.8,60,27.8,94.4,27.8
	c113.3,0,174.4-93.3,174.4-174.4c0-2.2,0-5.6,0-7.8C281.1,80.6,291.1,69.4,300,57.2"/>
</svg>
