<?xml version="1.0" encoding="utf-8"?>
<!-- Generator: Adobe Illustrator 18.1.0, SVG Export Plug-In . SVG Version: 6.00 Build 0)  -->
<svg version="1.1" id="Layer_1" xmlns="http://www.w3.org/2000/svg" xmlns:xlink="http://www.w3.org/1999/xlink" x="0px" y="0px"
	 viewBox="0 0 27 21.9" enable-background="new 0 0 27 21.9" xml:space="preserve">
<path fill="#FFFFFF" d="M27,2.6c-1,0.4-2.1,0.7-3.2,0.9c1.1-0.7,2-1.8,2.4-3.1C25.1,1,24,1.5,22.7,1.7c-1-1.1-2.4-1.7-4-1.7
	c-3.1,0-5.5,2.5-5.5,5.5c0,0.4,0,0.9,0.1,1.3C8.7,6.6,4.6,4.4,1.9,1C1.4,1.8,1.1,2.8,1.1,3.8c0,1.9,1,3.6,2.5,4.6
	c-0.9,0-1.8-0.3-2.5-0.7v0.1c0,2.7,1.9,4.9,4.4,5.4c-0.5,0.1-1,0.2-1.5,0.2c-0.4,0-0.7,0-1-0.1c0.7,2.2,2.7,3.8,5.2,3.8
	c-1.9,1.5-4.3,2.4-6.9,2.4c-0.4,0-0.9,0-1.3-0.1c2.4,1.6,5.4,2.5,8.5,2.5c10.2,0,15.7-8.4,15.7-15.7c0-0.2,0-0.5,0-0.7
	C25.3,4.7,26.2,3.7,27,2.6"/>
</svg>
