<?xml version="1.0" encoding="utf-8"?>
<!-- Generator: Adobe Illustrator 16.0.4, SVG Export Plug-In . SVG Version: 6.00 Build 0)  -->
<!DOCTYPE svg PUBLIC "-//W3C//DTD SVG 1.1//EN" "http://www.w3.org/Graphics/SVG/1.1/DTD/svg11.dtd">
<svg version="1.1" id="Layer_1" xmlns="http://www.w3.org/2000/svg" xmlns:xlink="http://www.w3.org/1999/xlink" x="0px" y="0px"
	 width="62.957px" height="19.277px" viewBox="266.106 411.198 62.957 19.277"
	 enable-background="new 266.106 411.198 62.957 19.277" xml:space="preserve">
<g>
	<path fill="#FFFFFF" d="M268.702,417.494c0.521,0,1.055,0.109,1.055,0.449c0,0.194-0.158,0.51-0.691,1.08
		c-0.619,1.225-1.48,3.057-1.528,4.306v0.049c0,0.157,0.073,0.242,0.146,0.242c0.606,0,2.972-3.42,3.093-3.542
		c0.037-0.036,0.085-0.048,0.121-0.048c0.122,0,0.243,0.146,0.267,0.206c-0.012,0.073-2.729,4.282-3.906,5.18
		c-1.832,1.419-1.358-5.144,0.57-7.836C268.047,417.53,268.386,417.494,268.702,417.494 M269.818,414.437
		c0.34,0,0.837,0.376,0.837,0.849c0,0.983-1.298,2.341-2.038,1.116C268.144,415.698,269.102,414.437,269.818,414.437"/>
	<path fill="#FFFFFF" d="M273.323,417.93c0,0.194-0.17,0.522-0.704,1.092c-0.509,1.031-1.177,2.536-1.419,3.943
		c0.51-1.444,1.614-3.591,2.511-4.222l0.085-0.085c0.243-0.291,2.099-0.291,2.062,0.158c-0.012,0.206-0.206,0.582-0.837,1.261
		c-0.437,0.922-0.886,2.111-0.995,3.081c1.067-1.019,2.717-3.093,2.851-3.214c0.158-0.158,0.34,0.049,0.352,0.146
		c0,0.024-2.098,3.603-3.202,4.742c-2.001,1.456-1.334-2.668-1.152-3.675c-0.631,1.213-1.298,2.656-1.577,3.833
		c0,0.012,0,0.012,0.012,0.024c0.024,0-0.582,0.57-0.958,0.57c-0.109,0-0.728-0.4-0.728-2.232c0-1.237,0.376-3.105,1.783-5.774
		C271.916,417.396,273.323,417.36,273.323,417.93"/>
	<path fill="#FFFFFF" d="M280.929,423.607c1.007-1.165,2.365-3.13,2.487-3.239c0.158-0.158,0.364,0.073,0.388,0.146
		c-1.031,1.577-1.905,3.02-3.13,4.731c-0.473,0.679-1.225,0.012-1.431-0.825c-0.219,0.315-0.4,0.68-0.801,0.922
		c-5.265,1.881-1.237-11.584,1.759-6.587c0.473-1.346,1.043-2.838,1.783-4.33c0.085-0.255,2.729-0.388,2.256,0.206
		c-0.837,1.055-3.845,6.781-3.785,8.795C280.481,424.165,280.783,423.765,280.929,423.607 M279.449,420.902l0.57-1.602
		c-1.88-2.099-3.724,8.115-1.359,3.833L279.449,420.902z"/>
	<path fill="#FFFFFF" d="M285.369,417.494c0.522,0,1.056,0.109,1.056,0.449c0,0.194-0.158,0.51-0.692,1.08
		c-0.618,1.225-1.479,3.057-1.528,4.306v0.049c0,0.157,0.073,0.242,0.146,0.242c0.606,0,2.972-3.42,3.093-3.542
		c0.036-0.036,0.085-0.048,0.121-0.048c0.121,0,0.243,0.146,0.267,0.206c-0.012,0.073-2.729,4.282-3.906,5.18
		c-1.832,1.419-1.358-5.144,0.57-7.836C284.702,417.53,285.041,417.494,285.369,417.494 M286.473,414.437
		c0.34,0,0.837,0.376,0.837,0.849c0,0.983-1.298,2.341-2.038,1.116C284.799,415.698,285.757,414.437,286.473,414.437"/>
	<path fill="#FFFFFF" d="M289.36,424.857c0.024-0.134,0.036-0.268,0.048-0.4c-4.937,4.366-2.487-10.214,1.71-6.211
		c0.085-0.206,0.17-0.4,0.267-0.606c0.084-0.255,2.596-0.485,2.256,0.206c-0.121,0.231-0.582,0.886-0.582,0.886
		c-0.691,1.128-1.177,2.535-1.541,3.979c0.521-0.546,1.08-1.128,1.638-1.795c0.073-0.012,0.461,0.012,0.376,0.133
		c-0.691,1.031-1.48,1.929-2.269,2.754c-0.679,3.057-0.958,5.968-1.819,6.356v0.012c-0.837,0.425-2.159,0.558-2.572-0.631
		C286.51,427.816,287.625,426.567,289.36,424.857 M288.863,429.333c0.206-0.521,0.219-1.71,0.376-3.372
		c-0.752,0.886-1.261,1.71-1.176,2.583C288.123,429.139,288.644,429.77,288.863,429.333 M289.809,422.357
		c0.255-1.091,0.594-2.268,1.08-3.529C288.693,417.093,287.189,427.586,289.809,422.357"/>
	<path fill="#FFFFFF" d="M295.243,418.282c1.48-0.606,3.942-0.085,3.008,1.528c0.23,0.498,0.024,1.383-0.376,2.28
		c0.789-0.521,1.59-1.261,2.257-2.038c0.121-0.134,0.278,0.024,0.315,0.121c-1.104,1.638-2.28,2.984-3.433,3.469
		c-0.849,1.42-1.893,2.414-3.057,1.723c-0.146,0.013-0.279-0.013-0.388-0.109C292.271,424.335,293.169,419.131,295.243,418.282
		 M295.498,423.729c-0.388-0.134-0.861-0.485-1.152-0.922c-0.133,0.643-0.279,1.383,0.097,1.723
		C294.661,424.735,295.11,424.384,295.498,423.729 M295.886,422.904c0.267-0.704,0.546-1.638,0.74-2.814
		c0.097-1.201-0.643-0.922-1.165,0.097C294.54,422.03,295.11,422.892,295.886,422.904"/>
	<path fill="#FFFFFF" d="M306.804,412.933c-1.311-1.286-7.582-0.23-7.982,3.227c-2.426-3.142,0.728-4.961,4.464-4.961
		c9.692,0,5.92,7.606,0.037,9.923c3.845,5.702,7.388,1.977,9.4-1.043c0.121-0.169,0.449,0.073,0.449,0.134
		c-1.698,3.094-6.138,8.625-11.185,1.649c-0.485,1.698-0.873,2.875-0.509,4.271v0.012c0,0.049-0.146,0.57-0.364,0.474
		c-3.033-1.311,1.055-11.84,2.401-13.368c0.328-0.376,2.548-0.291,2.232,0.243c-0.219,0.364-1.783,3.25-2.984,6.284
		c0.061,0.194,0.122,0.388,0.194,0.582C307.24,417.639,307.932,414.061,306.804,412.933 M309.836,417.579
		c0.206-0.048,0.546-0.097,0.861-0.097c0.521,0,1.056,0.109,1.056,0.449c0,0.194-0.158,0.509-0.691,1.08
		c-0.619,1.225-1.092,2.196-1.322,3.457c-0.158,0.874-1.335,0.995-1.541,0.886C308.223,421.509,308.757,419.095,309.836,417.579
		 M311.814,414.437c0.34,0,0.837,0.376,0.837,0.849c0,0.983-1.298,2.341-2.038,1.116
		C310.14,415.698,311.098,414.437,311.814,414.437"/>
	<path fill="#FFFFFF" d="M315.367,418.416v0.012c0.219,0.121,0.219,0.558-0.824,1.88c-0.946,1.928-1.286,4.221-0.935,4.306
		c0.995,0.23,3.215-6.429,3.13-7.654c-0.024-0.413,1.322-0.34,1.455,0c1.274,1.383-3.42,9.389-4.937,8.782
		c-2.402-0.861-0.704-5.641,0.23-7.278C313.584,418.148,314.652,417.93,315.367,418.416"/>
	<path fill="#FFFFFF" d="M323.483,420.393c0.207-0.218,0.376,0.146,0.376,0.146s-1.819,2.79-2.777,3.919
		c-0.946,1.104-2.099,1.346-2.608,0c-1.577-4.198,1.468-6.454,1.468-6.454c1.031-0.801,2.135-0.097,2.499,0.23
		c0.667,0.255,1.674,1.189-2.947,4.246c-0.158,1.322,0.267,2.123,1.528,0.703L323.483,420.393z M319.65,421.751
		c2.402-2.183,1.808-2.911,1.322-2.62C320.341,419.811,319.893,420.83,319.65,421.751"/>
	<path fill="#FFFFFF" d="M329.063,420.004c-1.237,1.747-2.365,3.615-3.967,5.107c-0.206,0.194-1.104,0.667-1.347,0.268
		c-0.218-0.353,0.547-4.853,1.323-5.872c-0.158,0.012-0.292,0.024-0.449,0.024c-0.134,0.218-0.946,1.213-1.48,1.917
		c0,0-0.484,0.036-0.254-0.291c0.497-0.728,1.152-1.529,1.225-1.602l0.024-0.024c-0.788-0.073-1.164-0.4-0.109-1.238
		c0.631-0.497,0.752-0.57,0.886-0.497c0.801,0.376,3.081-0.267,2.62,0.643c-0.752,1.383-1.929,3.349-2.39,5.325
		c1.116-0.837,3.433-3.736,3.579-3.894C328.93,419.653,329.063,420.004,329.063,420.004"/>
</g>
</svg>
