<?xml version="1.0" encoding="utf-8"?>
<!-- Generator: Adobe Illustrator 18.1.0, SVG Export Plug-In . SVG Version: 6.00 Build 0)  -->
<svg version="1.1" id="Layer_1" xmlns="http://www.w3.org/2000/svg" xmlns:xlink="http://www.w3.org/1999/xlink" x="0px" y="0px"
	 viewBox="0 0 1000 1000" enable-background="new 0 0 1000 1000" xml:space="preserve">
<g id="RED_BG_-_does_not_print">
</g>
<g>
	<g>
		<path fill="#666666" d="M810.5,391.9c0,8.9-7.2,16.1-16.1,16.1c-8.9,0-16.1-7.2-16.1-16.1c0-8.9,7.2-16.1,16.1-16.1
			C803.3,375.8,810.5,383,810.5,391.9"/>
		<path fill="#666666" d="M793.9,412.4c-12.1,0-21.8,9.8-21.8,21.8s9.8,21.8,21.8,21.8c12.1,0,21.8-9.8,21.8-21.8
			S806,412.4,793.9,412.4 M793.9,446.4c-6.7,0-12.2-5.4-12.2-12.2s5.4-12.2,12.2-12.2c6.7,0,12.2,5.4,12.2,12.2
			S800.6,446.4,793.9,446.4"/>
		<path fill="#666666" d="M793.9,369.8c-12.1,0-21.8,9.8-21.8,21.8c0,12.1,9.8,21.8,21.8,21.8c12.1,0,21.8-9.8,21.8-21.8
			C815.7,379.6,806,369.8,793.9,369.8 M793.9,403.8c-6.7,0-12.2-5.4-12.2-12.2c0-6.7,5.4-12.2,12.2-12.2c6.7,0,12.2,5.4,12.2,12.2
			C806.1,398.3,800.6,403.8,793.9,403.8"/>
		<path fill="#666666" d="M836.5,369.8c-12.1,0-21.8,9.8-21.8,21.8c0,12.1,9.8,21.8,21.8,21.8c12.1,0,21.8-9.8,21.8-21.8
			C858.3,379.6,848.6,369.8,836.5,369.8 M836.5,403.8c-6.7,0-12.2-5.4-12.2-12.2c0-6.7,5.4-12.2,12.2-12.2c6.7,0,12.2,5.4,12.2,12.2
			C848.7,398.3,843.2,403.8,836.5,403.8"/>
		<path fill="#666666" d="M751.3,369.8c-12.1,0-21.8,9.8-21.8,21.8c0,12.1,9.8,21.8,21.8,21.8c12.1,0,21.8-9.8,21.8-21.8
			C773.1,379.6,763.4,369.8,751.3,369.8 M751.3,403.8c-6.7,0-12.2-5.4-12.2-12.2c0-6.7,5.4-12.2,12.2-12.2c6.7,0,12.2,5.4,12.2,12.2
			C763.5,398.3,758,403.8,751.3,403.8"/>
		<path fill="#666666" d="M793.9,327.1c-12.1,0-21.8,9.8-21.8,21.8c0,12.1,9.8,21.8,21.8,21.8c12.1,0,21.8-9.8,21.8-21.8
			C815.7,336.8,806,327.1,793.9,327.1 M793.9,361.1c-6.7,0-12.2-5.4-12.2-12.2s5.4-12.2,12.2-12.2c6.7,0,12.2,5.4,12.2,12.2
			S800.6,361.1,793.9,361.1"/>
		<path fill="#666666" d="M650.3,383.7c-33.8,0-62.3,22.6-71.2,53.5c-8.9-30.9-37.4-53.5-71.2-53.5c-32,0-59.3,20.3-69.7,48.8V327.4
			h-33.4v68.9c-11.8-7.9-26-12.5-41.2-12.5c-34,0-62.6,22.9-71.4,54.1c-8.7-31.2-37.4-54.1-71.4-54.1c-40.9,0-74.1,33.2-74.1,74.1
			s33.2,74.1,74.1,74.1c34,0,62.6-22.9,71.4-54.1c8.7,31.2,37.4,54.1,71.4,54.1c35.1,0,64.5-24.4,72.2-57.2
			c7.7,32.8,37,57.2,72.2,57.2c15.3,0,29.5-4.6,41.3-12.6v41.7c-0.4,22.4-18.8,40.5-41.3,40.5c-22.8,0-41.3-18.5-41.3-41.3h-32.8
			c0,40.9,33.2,74.1,74.1,74.1c40.5,0,73.4-32.5,74.1-72.8h0V561c0-0.2,0-0.5,0-0.7h0v-73.5c11.3,26.6,37.6,45.2,68.3,45.2
			c40.9,0,74.1-33.2,74.1-74.1S691.2,383.7,650.3,383.7z M220.8,499.2c-19.8,0-36.3-13.9-40.4-32.6h80.7
			C257.1,485.2,240.6,499.2,220.8,499.2z M180.2,450.4c3.5-19.2,20.3-33.8,40.6-33.8c20.2,0,37.1,14.6,40.6,33.8H180.2z
			 M404.7,459.3c-0.8,22.1-18.9,39.8-41.2,39.8c-22.8,0-41.3-18.5-41.3-41.3c0-22.8,18.5-41.3,41.3-41.3c22.3,0,40.4,17.7,41.2,39.8
			V459.3z M507.9,499.2c-22.8,0-41.3-18.5-41.3-41.3c0-22.8,18.5-41.3,41.3-41.3c22.8,0,41.3,18.5,41.3,41.3
			C549.2,480.7,530.7,499.2,507.9,499.2z M650.3,499.2c-19.8,0-36.3-13.9-40.4-32.6h80.7C686.6,485.2,670.1,499.2,650.3,499.2z
			 M609.7,450.4c3.5-19.2,20.3-33.8,40.6-33.8c20.2,0,37.1,14.6,40.6,33.8H609.7z"/>
	</g>
	<g>
		<path fill="#666666" d="M144.5,680l2.5-0.3c0.3,2,1.2,2.9,2.7,2.9c0.8,0,1.4-0.2,1.8-0.6c0.4-0.4,0.7-0.9,0.7-1.5
			c0-0.3-0.1-0.6-0.2-0.9c-0.2-0.2-0.4-0.4-0.7-0.6c-0.3-0.2-1.1-0.4-2.3-0.8c-1.1-0.3-1.9-0.7-2.4-1.1c-0.5-0.4-0.9-0.9-1.2-1.5
			c-0.3-0.6-0.4-1.3-0.4-2c0-0.8,0.2-1.6,0.6-2.3c0.4-0.7,0.9-1.2,1.6-1.5c0.7-0.3,1.5-0.5,2.5-0.5c1.5,0,2.6,0.4,3.5,1.2
			c0.8,0.8,1.3,1.9,1.3,3.4l-2.5,0.1c-0.1-0.8-0.4-1.4-0.7-1.7s-0.9-0.5-1.6-0.5c-0.7,0-1.2,0.1-1.6,0.4c-0.4,0.3-0.6,0.6-0.6,1.1
			c0,0.4,0.2,0.8,0.5,1.1c0.3,0.3,1.1,0.6,2.3,0.9c1.3,0.4,2.2,0.8,2.8,1.2c0.6,0.4,1,0.9,1.3,1.6c0.3,0.6,0.4,1.4,0.4,2.3
			c0,1.3-0.4,2.4-1.2,3.4c-0.8,0.9-2.1,1.4-3.8,1.4C146.5,685.3,144.8,683.5,144.5,680z"/>
		<path fill="#666666" d="M156.8,685v-15.3h4.1c1.5,0,2.5,0.1,3,0.2c0.7,0.2,1.4,0.7,1.8,1.5s0.7,1.8,0.7,3c0,1.1-0.2,2-0.6,2.8
			c-0.4,0.7-0.9,1.3-1.6,1.6c-0.6,0.3-1.7,0.5-3.2,0.5h-1.7v5.8H156.8z M159.3,672.3v4.4h1.4c0.9,0,1.6-0.1,1.9-0.2
			c0.3-0.1,0.6-0.4,0.8-0.7c0.2-0.3,0.3-0.8,0.3-1.3c0-0.5-0.1-0.9-0.3-1.3c-0.2-0.3-0.5-0.6-0.8-0.7c-0.3-0.1-1-0.2-2.1-0.2H159.3z
			"/>
		<path fill="#666666" d="M168.5,685v-15.3h9.3v2.6H171v3.4h6.3v2.6H171v4.2h7v2.6H168.5z"/>
		<path fill="#666666" d="M188.2,679.4l2.5,0.9c-0.4,1.7-1,3-1.9,3.8s-2,1.2-3.3,1.2c-1.6,0-3-0.6-4-1.9c-1.2-1.5-1.8-3.4-1.8-5.9
			c0-2.6,0.6-4.7,1.8-6.1c1-1.3,2.4-1.9,4.1-1.9c1.4,0,2.6,0.5,3.5,1.4c0.7,0.7,1.2,1.7,1.5,3l-2.5,0.7c-0.2-0.8-0.5-1.5-1-1.9
			c-0.5-0.4-1-0.7-1.7-0.7c-0.9,0-1.7,0.4-2.3,1.2c-0.6,0.8-0.9,2.1-0.9,4c0,1.9,0.3,3.3,0.9,4.1c0.6,0.8,1.3,1.2,2.2,1.2
			c0.7,0,1.2-0.3,1.7-0.8C187.6,681.3,188,680.5,188.2,679.4z"/>
		<path fill="#666666" d="M192.7,685v-15.3h2.5V685H192.7z"/>
		<path fill="#666666" d="M209,685h-2.7l-1.1-3.5h-5l-1,3.5h-2.7l4.9-15.3h2.7L209,685z M204.4,679l-1.7-5.7l-1.7,5.7H204.4z"/>
		<path fill="#666666" d="M210.4,685v-15.2h2.5v12.6h6.3v2.6H210.4z"/>
		<path fill="#666666" d="M221,685v-15.3h2.5V685H221z"/>
		<path fill="#666666" d="M225.3,680l2.5-0.3c0.3,2,1.2,2.9,2.7,2.9c0.8,0,1.4-0.2,1.8-0.6c0.4-0.4,0.7-0.9,0.7-1.5
			c0-0.3-0.1-0.6-0.2-0.9c-0.2-0.2-0.4-0.4-0.7-0.6c-0.3-0.2-1.1-0.4-2.3-0.8c-1.1-0.3-1.9-0.7-2.4-1.1c-0.5-0.4-0.9-0.9-1.2-1.5
			c-0.3-0.6-0.4-1.3-0.4-2c0-0.8,0.2-1.6,0.6-2.3c0.4-0.7,0.9-1.2,1.6-1.5c0.7-0.3,1.5-0.5,2.5-0.5c1.5,0,2.6,0.4,3.5,1.2
			c0.8,0.8,1.3,1.9,1.3,3.4l-2.5,0.1c-0.1-0.8-0.4-1.4-0.7-1.7s-0.9-0.5-1.6-0.5c-0.7,0-1.2,0.1-1.6,0.4c-0.4,0.3-0.6,0.6-0.6,1.1
			c0,0.4,0.2,0.8,0.5,1.1c0.3,0.3,1.1,0.6,2.3,0.9c1.3,0.4,2.2,0.8,2.8,1.2c0.6,0.4,1,0.9,1.3,1.6c0.3,0.6,0.4,1.4,0.4,2.3
			c0,1.3-0.4,2.4-1.2,3.4c-0.8,0.9-2.1,1.4-3.8,1.4C227.3,685.3,225.6,683.5,225.3,680z"/>
		<path fill="#666666" d="M240.4,685v-12.7h-3.7v-2.6h10v2.6H243V685H240.4z"/>
		<path fill="#666666" d="M253.2,685v-15.3h9.3v2.6h-6.8v3.4h6.3v2.6h-6.3v4.2h7v2.6H253.2z"/>
		<path fill="#666666" d="M275,683.1c0.6,0.5,1.3,1,2,1.3l-0.9,2.2c-0.4-0.1-0.7-0.3-1.1-0.6c-0.1,0-0.7-0.5-1.7-1.4
			c-0.8,0.4-1.8,0.7-2.8,0.7c-1.8,0-3.3-0.7-4.4-2c-1.1-1.4-1.7-3.3-1.7-5.9c0-2.6,0.6-4.5,1.7-5.9c1.1-1.3,2.6-2,4.4-2
			c1.8,0,3.3,0.7,4.4,2s1.7,3.3,1.7,5.9c0,1.2-0.1,2.3-0.4,3.2C275.9,681.5,275.5,682.3,275,683.1z M273,681.3c0.7-0.9,1-2.2,1-4
			c0-1.8-0.3-3.1-1-4c-0.6-0.9-1.5-1.3-2.5-1.3c-1,0-1.9,0.4-2.5,1.3c-0.7,0.9-1,2.2-1,4c0,1.8,0.3,3.2,1,4c0.7,0.9,1.5,1.3,2.4,1.3
			c0.4,0,0.7-0.1,1-0.2c-0.5-0.4-1.1-0.7-1.6-1l0.7-1.8C271.4,680.1,272.2,680.6,273,681.3z"/>
		<path fill="#666666" d="M278.5,669.7h2.5v8.3c0,1.3,0,2.1,0.1,2.5c0.1,0.7,0.4,1.2,0.8,1.6c0.4,0.4,1,0.6,1.7,0.6
			c0.6,0,1.1-0.1,1.4-0.4c0.4-0.3,0.6-0.6,0.8-1.1c0.1-0.5,0.2-1.5,0.2-3v-8.5h2.5v8c0,2.1-0.1,3.5-0.3,4.5
			c-0.2,0.9-0.7,1.7-1.5,2.2c-0.8,0.6-1.8,0.9-3,0.9c-1.3,0-2.3-0.2-3.1-0.7c-0.7-0.5-1.3-1.1-1.6-2c-0.3-0.9-0.5-2.4-0.5-4.7V669.7
			z"/>
		<path fill="#666666" d="M291.1,685v-15.3h2.5V685H291.1z"/>
		<path fill="#666666" d="M296.1,685v-15.3h4.1c1.5,0,2.5,0.1,3,0.2c0.7,0.2,1.4,0.7,1.8,1.5s0.7,1.8,0.7,3c0,1.1-0.2,2-0.6,2.8
			c-0.4,0.7-0.9,1.3-1.6,1.6c-0.6,0.3-1.7,0.5-3.2,0.5h-1.7v5.8H296.1z M298.6,672.3v4.4h1.4c0.9,0,1.6-0.1,1.9-0.2
			c0.3-0.1,0.6-0.4,0.8-0.7c0.2-0.3,0.3-0.8,0.3-1.3c0-0.5-0.1-0.9-0.3-1.3c-0.2-0.3-0.5-0.6-0.8-0.7c-0.3-0.1-1-0.2-2.1-0.2H298.6z
			"/>
		<path fill="#666666" d="M307.7,685v-15.3h3.8l2.3,10.4l2.3-10.4h3.8V685h-2.4V673L315,685h-2.4l-2.5-12.1V685H307.7z"/>
		<path fill="#666666" d="M322.4,685v-15.3h9.3v2.6h-6.8v3.4h6.3v2.6h-6.3v4.2h7v2.6H322.4z"/>
		<path fill="#666666" d="M334.1,685v-15.3h2.5l5.1,10.2v-10.2h2.4V685h-2.5l-5.1-10v10H334.1z"/>
		<path fill="#666666" d="M349.5,685v-12.7h-3.7v-2.6h10v2.6h-3.7V685H349.5z"/>
		<path fill="#666666" d="M373.4,683.1l-1.5,2.3c-0.7-0.4-1.4-1-2.1-1.8c-0.5,0.6-1.1,1-1.6,1.2c-0.6,0.3-1.2,0.4-2,0.4
			c-1.5,0-2.6-0.5-3.4-1.4c-0.7-0.9-1.1-1.9-1.1-3.1c0-2,1-3.5,2.9-4.7c-0.9-1.2-1.3-2.3-1.3-3.4c0-1,0.3-1.8,1-2.4
			c0.6-0.6,1.5-0.9,2.5-0.9c1,0,1.9,0.3,2.5,1c0.6,0.6,1,1.5,1,2.5c0,0.7-0.2,1.3-0.5,1.8c-0.3,0.6-0.9,1.2-1.8,1.8l1.7,2.8
			c0.2-0.4,0.4-1,0.5-1.7l2.2,0.6c-0.3,1.5-0.7,2.5-1.1,3.2c0.3,0.3,0.6,0.6,1,1C372.9,682.8,373.2,683,373.4,683.1z M365.9,678
			c-0.5,0.3-0.9,0.7-1.2,1.2c-0.3,0.5-0.4,1-0.4,1.5c0,0.7,0.2,1.2,0.5,1.6c0.4,0.4,0.8,0.6,1.4,0.6c0.7,0,1.5-0.4,2.2-1.2
			L365.9,678z M366.8,674.8l0.6-0.6c0.5-0.5,0.7-0.9,0.7-1.3c0-0.4-0.1-0.7-0.4-1c-0.2-0.3-0.5-0.4-0.9-0.4c-0.4,0-0.7,0.1-0.9,0.3
			c-0.2,0.2-0.3,0.5-0.3,0.8c0,0.4,0.2,0.8,0.5,1.3L366.8,674.8z"/>
		<path fill="#666666" d="M382.6,685v-12.7h-3.7v-2.6h10v2.6h-3.7V685H382.6z"/>
		<path fill="#666666" d="M389.7,677.5c0-1.8,0.3-3.3,0.8-4.5c0.5-1.2,1.2-2.1,2.1-2.6c0.9-0.6,1.9-0.9,3.2-0.9
			c1.8,0,3.3,0.7,4.4,2.1c1.1,1.4,1.7,3.3,1.7,5.9c0,2.6-0.6,4.6-1.8,6c-1.1,1.3-2.5,1.9-4.3,1.9c-1.8,0-3.2-0.6-4.3-1.9
			C390.3,681.9,389.7,680,389.7,677.5z M392.3,677.4c0,1.8,0.3,3.1,1,4c0.7,0.9,1.5,1.3,2.5,1.3c1,0,1.8-0.4,2.5-1.3
			c0.7-0.9,1-2.2,1-4c0-1.8-0.3-3.1-1-3.9c-0.6-0.8-1.5-1.3-2.5-1.3s-1.9,0.4-2.5,1.3S392.3,675.6,392.3,677.4z"/>
		<path fill="#666666" d="M403.3,677.5c0-1.8,0.3-3.3,0.8-4.5c0.5-1.2,1.2-2.1,2.1-2.6c0.9-0.6,1.9-0.9,3.2-0.9
			c1.8,0,3.3,0.7,4.4,2.1c1.1,1.4,1.7,3.3,1.7,5.9c0,2.6-0.6,4.6-1.8,6c-1.1,1.3-2.5,1.9-4.3,1.9c-1.8,0-3.2-0.6-4.3-1.9
			C403.9,681.9,403.3,680,403.3,677.5z M406,677.4c0,1.8,0.3,3.1,1,4c0.7,0.9,1.5,1.3,2.5,1.3c1,0,1.8-0.4,2.5-1.3
			c0.7-0.9,1-2.2,1-4c0-1.8-0.3-3.1-1-3.9c-0.6-0.8-1.5-1.3-2.5-1.3s-1.9,0.4-2.5,1.3S406,675.6,406,677.4z"/>
		<path fill="#666666" d="M417.6,685v-15.2h2.5v12.6h6.3v2.6H417.6z"/>
		<path fill="#666666" d="M432.8,685v-15.3h2.5v6h5v-6h2.5V685h-2.5v-6.7h-5v6.7H432.8z"/>
		<path fill="#666666" d="M445.4,685v-15.3h2.5V685H445.4z"/>
		<path fill="#666666" d="M450.3,685v-15.3h5.3c1.4,0,2.3,0.1,2.9,0.4c0.6,0.3,1.1,0.8,1.4,1.4s0.6,1.5,0.6,2.4
			c0,1.2-0.3,2.2-0.9,2.9c-0.6,0.7-1.4,1.2-2.4,1.4c0.5,0.4,1,0.8,1.3,1.3s0.8,1.3,1.5,2.5l1.5,3h-3l-1.8-3.3
			c-0.7-1.2-1.1-2-1.3-2.3c-0.2-0.3-0.5-0.5-0.8-0.6c-0.3-0.1-0.7-0.2-1.3-0.2h-0.5v6.4H450.3z M452.8,676.2h1.9
			c1.1,0,1.9,0,2.2-0.2c0.3-0.1,0.6-0.3,0.8-0.6c0.2-0.3,0.3-0.7,0.3-1.2c0-0.5-0.1-0.9-0.3-1.2c-0.2-0.3-0.5-0.5-0.8-0.6
			c-0.2-0.1-0.9-0.1-2.1-0.1h-2V676.2z"/>
		<path fill="#666666" d="M463,685v-15.3h9.3v2.6h-6.8v3.4h6.3v2.6h-6.3v4.2h7v2.6H463z"/>
		<path fill="#666666" d="M478.8,680.9V678h4.7v2.9H478.8z"/>
	</g>
	<g>
		<path fill="#666666" d="M493.1,685v-12.7h-3.7v-2.6h10v2.6h-3.7V685H493.1z"/>
		<path fill="#666666" d="M501,685v-15.3h2.5v6h5v-6h2.5V685h-2.5v-6.7h-5v6.7H501z"/>
		<path fill="#666666" d="M513.6,685v-15.3h9.3v2.6h-6.8v3.4h6.3v2.6h-6.3v4.2h7v2.6H513.6z"/>
		<path fill="#666666" d="M540.9,685h-2.7l-1.1-3.5h-5l-1,3.5h-2.7l4.9-15.3h2.7L540.9,685z M536.2,679l-1.7-5.7l-1.7,5.7H536.2z"/>
		<path fill="#666666" d="M542.2,669.7h4.6c1.2,0,2,0.1,2.6,0.4c0.6,0.3,1.1,0.7,1.6,1.3c0.5,0.6,0.9,1.4,1.2,2.4
			c0.3,1,0.4,2.2,0.4,3.7c0,1.3-0.1,2.5-0.4,3.4s-0.7,1.8-1.1,2.3c-0.5,0.6-1,1-1.7,1.3c-0.6,0.3-1.5,0.4-2.5,0.4h-4.8V669.7z
			 M544.7,672.3v10.1h1.9c0.8,0,1.4-0.1,1.8-0.2c0.4-0.2,0.7-0.4,0.9-0.7c0.2-0.3,0.4-0.8,0.6-1.5c0.2-0.7,0.2-1.5,0.2-2.6
			c0-1.1-0.1-2-0.2-2.7c-0.2-0.7-0.4-1.2-0.7-1.5c-0.3-0.4-0.7-0.6-1.2-0.7c-0.4-0.1-1-0.1-2.1-0.1H544.7z"/>
		<path fill="#666666" d="M558.1,685l-4.5-15.3h2.7l3.2,11.3l3.1-11.3h2.7l-4.5,15.3H558.1z"/>
		<path fill="#666666" d="M576.6,685h-2.7l-1.1-3.5h-5l-1,3.5H564l4.9-15.3h2.7L576.6,685z M571.9,679l-1.7-5.7l-1.7,5.7H571.9z"/>
		<path fill="#666666" d="M577.9,685v-15.3h2.5l5.1,10.2v-10.2h2.4V685h-2.5l-5.1-10v10H577.9z"/>
		<path fill="#666666" d="M593.4,685v-12.7h-3.7v-2.6h10v2.6h-3.7V685H593.4z"/>
		<path fill="#666666" d="M611.3,685h-2.7l-1.1-3.5h-5l-1,3.5h-2.7l4.9-15.3h2.7L611.3,685z M606.7,679l-1.7-5.7l-1.7,5.7H606.7z"/>
		<path fill="#666666" d="M618.5,679.4v-2.6h5.5v6.1c-0.5,0.6-1.3,1.2-2.3,1.7c-1,0.5-2,0.7-3,0.7c-1.2,0-2.3-0.3-3.3-0.9
			c-0.9-0.6-1.7-1.5-2.3-2.7c-0.6-1.2-0.8-2.6-0.8-4.3c0-1.7,0.3-3.1,0.8-4.3c0.6-1.2,1.3-2.1,2.2-2.7c0.9-0.6,2-0.9,3.2-0.9
			c1.5,0,2.7,0.4,3.6,1.1c0.9,0.8,1.5,1.9,1.7,3.4l-2.5,0.6c-0.2-0.8-0.5-1.4-1-1.8c-0.5-0.4-1.1-0.6-1.8-0.6c-1.1,0-2,0.4-2.6,1.3
			c-0.7,0.8-1,2.1-1,3.8c0,1.8,0.4,3.2,1.1,4.2c0.6,0.8,1.5,1.2,2.5,1.2c0.5,0,1-0.1,1.5-0.3c0.5-0.2,1-0.5,1.4-1v-1.9H618.5z"/>
		<path fill="#666666" d="M626.3,685v-15.3h9.3v2.6h-6.8v3.4h6.3v2.6h-6.3v4.2h7v2.6H626.3z"/>
		<path fill="#666666" d="M642.8,685v-15.3h2.5V685H642.8z"/>
		<path fill="#666666" d="M647.1,680l2.5-0.3c0.3,2,1.2,2.9,2.7,2.9c0.8,0,1.4-0.2,1.8-0.6c0.4-0.4,0.7-0.9,0.7-1.5
			c0-0.3-0.1-0.6-0.2-0.9c-0.2-0.2-0.4-0.4-0.7-0.6c-0.3-0.2-1.1-0.4-2.3-0.8c-1.1-0.3-1.9-0.7-2.4-1.1c-0.5-0.4-0.9-0.9-1.2-1.5
			c-0.3-0.6-0.4-1.3-0.4-2c0-0.8,0.2-1.6,0.6-2.3s0.9-1.2,1.6-1.5c0.7-0.3,1.5-0.5,2.5-0.5c1.5,0,2.6,0.4,3.5,1.2
			c0.8,0.8,1.3,1.9,1.3,3.4l-2.5,0.1c-0.1-0.8-0.4-1.4-0.7-1.7c-0.4-0.3-0.9-0.5-1.6-0.5c-0.7,0-1.2,0.1-1.6,0.4
			c-0.4,0.3-0.6,0.6-0.6,1.1c0,0.4,0.2,0.8,0.5,1.1c0.3,0.3,1.1,0.6,2.3,0.9c1.3,0.4,2.2,0.8,2.8,1.2c0.6,0.4,1,0.9,1.3,1.6
			c0.3,0.6,0.4,1.4,0.4,2.3c0,1.3-0.4,2.4-1.2,3.4c-0.8,0.9-2.1,1.4-3.8,1.4C649.1,685.3,647.4,683.5,647.1,680z"/>
		<path fill="#666666" d="M667.3,685v-6.4l-4.6-8.9h3l2.9,6.1l2.9-6.1h2.9l-4.6,8.9v6.4H667.3z"/>
		<path fill="#666666" d="M675.2,677.5c0-1.8,0.3-3.3,0.8-4.5c0.5-1.2,1.2-2.1,2.1-2.6c0.9-0.6,1.9-0.9,3.2-0.9
			c1.8,0,3.3,0.7,4.4,2.1c1.1,1.4,1.7,3.3,1.7,5.9c0,2.6-0.6,4.6-1.8,6c-1.1,1.3-2.5,1.9-4.3,1.9c-1.8,0-3.2-0.6-4.3-1.9
			C675.8,681.9,675.2,680,675.2,677.5z M677.8,677.4c0,1.8,0.3,3.1,1,4c0.7,0.9,1.5,1.3,2.5,1.3c1,0,1.8-0.4,2.5-1.3
			c0.7-0.9,1-2.2,1-4c0-1.8-0.3-3.1-1-3.9c-0.6-0.8-1.5-1.3-2.5-1.3c-1,0-1.9,0.4-2.5,1.3C678.1,674.2,677.8,675.6,677.8,677.4z"/>
		<path fill="#666666" d="M689.3,669.7h2.5v8.3c0,1.3,0,2.1,0.1,2.5c0.1,0.7,0.4,1.2,0.8,1.6c0.4,0.4,1,0.6,1.7,0.6
			c0.6,0,1.1-0.1,1.4-0.4s0.6-0.6,0.8-1.1c0.1-0.5,0.2-1.5,0.2-3v-8.5h2.5v8c0,2.1-0.1,3.5-0.3,4.5c-0.2,0.9-0.7,1.7-1.5,2.2
			c-0.8,0.6-1.8,0.9-3,0.9c-1.3,0-2.3-0.2-3.1-0.7c-0.7-0.5-1.3-1.1-1.6-2c-0.3-0.9-0.5-2.4-0.5-4.7V669.7z"/>
		<path fill="#666666" d="M702,685v-15.3h5.3c1.4,0,2.3,0.1,2.9,0.4c0.6,0.3,1.1,0.8,1.4,1.4s0.6,1.5,0.6,2.4c0,1.2-0.3,2.2-0.9,2.9
			c-0.6,0.7-1.4,1.2-2.4,1.4c0.5,0.4,1,0.8,1.3,1.3s0.8,1.3,1.5,2.5l1.5,3h-3l-1.8-3.3c-0.7-1.2-1.1-2-1.3-2.3
			c-0.2-0.3-0.5-0.5-0.8-0.6c-0.3-0.1-0.7-0.2-1.3-0.2h-0.5v6.4H702z M704.5,676.2h1.9c1.1,0,1.9,0,2.2-0.2c0.3-0.1,0.6-0.3,0.8-0.6
			c0.2-0.3,0.3-0.7,0.3-1.2c0-0.5-0.1-0.9-0.3-1.2c-0.2-0.3-0.5-0.5-0.8-0.6c-0.2-0.1-0.9-0.1-2.1-0.1h-2V676.2z"/>
		<path fill="#666666" d="M714,680l2.5-0.3c0.3,2,1.2,2.9,2.7,2.9c0.8,0,1.4-0.2,1.8-0.6c0.4-0.4,0.7-0.9,0.7-1.5
			c0-0.3-0.1-0.6-0.2-0.9c-0.2-0.2-0.4-0.4-0.7-0.6c-0.3-0.2-1.1-0.4-2.3-0.8c-1.1-0.3-1.9-0.7-2.4-1.1c-0.5-0.4-0.9-0.9-1.2-1.5
			c-0.3-0.6-0.4-1.3-0.4-2c0-0.8,0.2-1.6,0.6-2.3s0.9-1.2,1.6-1.5c0.7-0.3,1.5-0.5,2.5-0.5c1.5,0,2.6,0.4,3.5,1.2s1.3,1.9,1.3,3.4
			l-2.5,0.1c-0.1-0.8-0.4-1.4-0.7-1.7c-0.4-0.3-0.9-0.5-1.6-0.5c-0.7,0-1.2,0.1-1.6,0.4c-0.4,0.3-0.6,0.6-0.6,1.1
			c0,0.4,0.2,0.8,0.5,1.1c0.3,0.3,1.1,0.6,2.3,0.9c1.3,0.4,2.2,0.8,2.8,1.2c0.6,0.4,1,0.9,1.3,1.6s0.4,1.4,0.4,2.3
			c0,1.3-0.4,2.4-1.2,3.4c-0.8,0.9-2.1,1.4-3.8,1.4C716,685.3,714.3,683.5,714,680z"/>
	</g>
</g>
</svg>
