<?xml version="1.0" encoding="utf-8"?>
<!-- Generator: Adobe Illustrator 18.1.0, SVG Export Plug-In . SVG Version: 6.00 Build 0)  -->
<svg version="1.1" xmlns="http://www.w3.org/2000/svg" xmlns:xlink="http://www.w3.org/1999/xlink" x="0px" y="0px"
	 viewBox="0 0 841.9 595.3" enable-background="new 0 0 841.9 595.3" xml:space="preserve">
<g id="RED_BG_-_does_not_print">
</g>
<g id="White">
	<g>
		<rect x="90.1" y="384.2" fill="#666666" width="662.3" height="4.6"/>
		<polygon fill="#666666" points="549.2,345.2 540.4,345.2 540.4,339.9 563.1,339.9 563.1,345.2 554.8,345.2 554.8,372.5 
			549.2,372.5 		"/>
		<rect x="561.4" y="355.8" fill="#666666" width="11.4" height="5.4"/>
		<g>
			<path fill="#666666" d="M590.1,355.8h20.2v0.7c0,9.4-7.6,16.7-16,16.7c-9.1,0-16.7-7.3-16.7-17.1c0-9.6,7.5-16.8,16.5-16.8
				c7.6,0,13.1,5.4,14.7,10.3H602c-1.3-2.3-4.1-4.7-8.1-4.7c-7.2,0-10.8,6.4-10.8,11.4c0,5.1,3.5,11.3,11.1,11.3
				c3.7,0,7.2-2.1,9-6.2h-13.1V355.8z"/>
			<path fill="#666666" d="M655.4,345.2h3.8c3.5,0,4.7,1.5,4.7,3.7c0,3.4-3.7,3.4-5.2,3.4h-3.3V345.2z M649.9,372.5h9.6
				c2.3,0,5.8-0.2,8.1-2.1c1.9-1.4,3.8-3.8,3.8-7.6c0-5.6-3.2-7.4-5.2-8.1c1-0.5,3.4-2.1,3.4-6.3c0-2.3-1-4.6-2.6-6
				c-2.6-2.5-6.2-2.5-9.7-2.5h-7.3V372.5z M655.4,357.5h4.6c5.1,0,5.4,3.8,5.4,5.1c0,3.3-3,4.2-5.5,4.2h-4.5V357.5z"/>
		</g>
		<rect x="703.7" y="339.9" fill="#666666" width="5.9" height="32.6"/>
		<g>
			<path fill="#666666" d="M629.7,367.4c-6.1,0-11.1-5-11.1-11.3c0-6.1,5-11.3,11.1-11.3c6.2,0,11.5,5.2,11.5,11.3
				C641.2,362.5,635.9,367.4,629.7,367.4 M629.7,339.3c-9.2,0-17,7.5-17,16.8c0,9.4,7.8,17.1,17,17.1c9.6,0,17-7.7,17-17.1
				C646.7,346.8,639.3,339.3,629.7,339.3"/>
		</g>
		<path fill="#666666" d="M686.2,348.3h-0.1l-4.3,10.6h8.3L686.2,348.3z M671,372.5l12.9-32.6h4.5l12.7,32.6h-5.9l-3-8.3h-12.2
			l-3.1,8.3H671z"/>
		<polygon fill="#666666" points="715.2,339.9 720.9,339.9 734.4,361.3 734.4,339.9 740.1,339.9 740.1,372.5 734.8,372.5 720.8,350 
			720.8,372.5 715.2,372.5 		"/>
		<g>
			<path fill="#666666" d="M453.2,363.2c0.3,3.2,3.6,4.3,5.3,4.3c2.2,0,4.7-1.6,4.7-4c0-3.2-2.5-4.3-6.4-5.8c-2.8-1-8.2-2.2-8.2-8.9
				c0-5.4,4.3-9.4,9.9-9.4c3.5,0,9.2,2.6,9.5,9.4h-5.6c-0.2-3.1-2.6-3.9-4.1-3.9c-1.8,0-4.1,1.3-4.1,3.3c0,3,2.9,3.8,6,4.9
				c2.5,0.9,8.5,2.6,8.5,9.8c0,6.9-5.6,10.4-10.4,10.4c-4.4,0-10.6-3-10.9-10H453.2z"/>
		</g>
		<rect x="501.3" y="339.9" fill="#666666" width="5.7" height="32.6"/>
		<path fill="#666666" d="M483.6,348.3L483.6,348.3l-4.1,10.6h8.1L483.6,348.3z M468.3,372.5l13.1-32.6h4.3l12.7,32.6h-5.9l-3.1-8.3
			h-12.1l-3.2,8.3H468.3z"/>
		<polygon fill="#666666" points="512.6,339.9 518.3,339.9 531.9,361.2 531.9,339.9 537.5,339.9 537.5,372.5 532.2,372.5 518.2,350 
			518.2,372.5 512.6,372.5 		"/>
		<g>
			<polygon fill="#666666" points="229.4,323.7 229.5,323.9 229.5,323.7 			"/>
			<path fill="#666666" d="M155.4,324.5l0.2-0.5h73.8l-46.2-123.9l35.6,23.8v-31.8h-0.2H90.1v64.2v0c7.8-6.2,17.7-9.9,28.4-9.9
				c8.9,0,17.3,2.6,24.3,7l0,0c0.1,0.1,0.2,0.1,0.3,0.2c11,7.2,20.7,20.9,20.7,38.1c0,12.6-5.2,24-13.5,32.3c0,0,0,0,0,0
				c-6.1,6.1-14,10.4-22.8,12.2c0,0-0.1,0-0.1,0c-0.7,0.1-1.4,0.3-2.1,0.4c-0.2,0-0.3,0-0.5,0.1c-0.6,0.1-1.2,0.2-1.7,0.2
				c-0.4,0-0.7,0.1-1.1,0.1c-0.4,0-0.8,0.1-1.2,0.1c-0.8,0-1.5,0.1-2.3,0.1c-1.3,0-2.5-0.1-3.7-0.2c-0.4,0-0.8-0.1-1.2-0.1
				c-0.8-0.1-1.7-0.2-2.5-0.3c-0.5-0.1-0.9-0.2-1.3-0.3c-0.7-0.1-1.5-0.3-2.2-0.5c-0.5-0.1-0.9-0.2-1.4-0.4
				c-0.7-0.2-1.4-0.4-2.1-0.6c-0.5-0.2-0.9-0.3-1.4-0.5c-0.7-0.3-1.3-0.5-2-0.8c-0.4-0.2-0.9-0.4-1.3-0.6c-0.6-0.3-1.3-0.6-1.9-0.9
				c-0.4-0.2-0.9-0.4-1.3-0.7c-0.6-0.3-1.2-0.7-1.8-1.1c-0.4-0.3-0.8-0.5-1.2-0.8c-0.9-0.6-1.8-1.2-2.6-1.9c-4.4,1.3-6.8,4-6.8,5.6
				c0,0.8,0.6,1.6,1.6,2.4c4.8,4,21.1,7.5,41.1,8c0,0,0,0,0.1,0c0.7,0,1.5,0,2.2,0c0.1,0,0.3,0,0.4,0c0.9,0,1.7,0,2.6,0
				c26.6,0,47.8-4.6,47.8-10.4c0-1.2-1-2.2-2.8-3.2c-4.3-2.5-12.9-4.6-22.1-5.2c0,0,0,0,0,0H155.4z M167.7,293.8
				c0-22.2-13.8-36.1-24-41.8l25.6-33.9l12.9-17.2c2.1,7.7,40.1,118.6,40.1,118.6l-62.4,0.7C165.1,312.7,167.7,303.6,167.7,293.8z"
				/>
		</g>
		<g>
			<path fill="#666666" d="M304.2,324.1l-18-55.2l-17.8,55.2h-22.5l-35.2-94.2h28.9l18.2,56l18.2-56h20.6l17.8,56l18.5-56h28.9
				l-35,94.2H304.2z"/>
			<path fill="#666666" d="M453.2,285.8H383c3.2,11.7,12.2,18.3,24.5,18.3c9.2,0,15.9-2.5,18.9-7.6h26.2
				c-3.4,19.5-21.8,29.8-44.1,29.8c-30.6,0-52.2-19.9-52.2-50.3c0-28.7,21.2-48.5,48.3-48.5C436.7,227.6,455.8,250.5,453.2,285.8z
				 M427.5,266.5c-1.1-10.7-8.6-19.5-22-19.5c-12,0-20.6,6.9-23.3,19.5H427.5z"/>
			<path fill="#666666" d="M487.8,235c29.8-17.2,74.7-4.2,74.7,42c0,28.1-19.3,49.3-50.1,49.3c-30.8,0-49.9-20.4-49.9-48.5v-85.7
				h25.2V235z M487.8,278.8c0,15.1,9.4,24.5,24.6,24.5c15.3,0,24.6-11.3,24.6-26.2c0-27.5-31.1-33.3-49.3-17V278.8z"/>
			<path fill="#666666" d="M667.5,285.8h-70.1c3.2,11.7,12.2,18.3,24.5,18.3c9.2,0,15.9-2.5,18.9-7.6h26.2
				c-3.4,19.5-21.8,29.8-44.1,29.8c-30.6,0-52.2-19.9-52.2-50.3c0-28.7,21.2-48.5,48.3-48.5C651,227.6,670.2,250.5,667.5,285.8z
				 M641.9,266.5c-1.1-10.7-8.6-19.5-22-19.5c-12,0-20.6,6.9-23.3,19.5H641.9z"/>
			<path fill="#666666" d="M740.1,252.8c-12.4,0-26.9,2.3-37.3,8.4v62.9h-25v-79.3c16.6-9.9,37.1-17.2,62.3-17.2V252.8z"/>
		</g>
	</g>
</g>
</svg>
