<?xml version="1.0" encoding="utf-8"?>
<!-- Generator: Adobe Illustrator 18.1.0, SVG Export Plug-In . SVG Version: 6.00 Build 0)  -->
<svg version="1.1" xmlns="http://www.w3.org/2000/svg" xmlns:xlink="http://www.w3.org/1999/xlink" x="0px" y="0px"
	 viewBox="0 0 841.9 595.3" enable-background="new 0 0 841.9 595.3" xml:space="preserve">
<g id="RED_BG_-_does_not_print">
</g>
<g id="White">
	<path fill="#666666" d="M90.8,236.4c-3.8,0-7,3.1-7,7v97.4c0,3.8,3.1,7,7,7h115.4c3.8,0,7-3.1,7-7v-97.4c0-3.9-3.1-7-7-7
		 M89.1,340.8v-97.3c0-1,0.8-1.8,1.8-1.8h115.4c1,0,1.7,0.8,1.7,1.7v97.4c0,1-0.8,1.8-1.8,1.8H90.8
		C89.9,342.5,89.1,341.7,89.1,340.8"/>
	<path fill="#666666" d="M197.1,251.4l-21.4,21.4v0.1c-0.7,0.8-1.8,1.2-2.8,1.2c-1,0-1.9-0.5-2.6-1.3l-21.7-21.7l-21.7,21.7
		c-0.8,0.9-1.7,1.3-2.7,1.3c-1,0-2.1-0.5-2.8-1.3L100,251.4l-0.2-0.2v82.2h97.4v-82.2 M140.4,303l-32.5,0.1c-2.2,0-4-1.8-4-4
		c0-0.8,0.2-1.6,0.7-2.2l17-17.1c0.7-0.6,1.6-0.9,2.6-0.9c1.3,0,2.1,0.3,2.8,1.2l16.6,16.7c0.5,0.6,0.8,1.4,0.8,2.3
		C144.4,301.2,142.6,303,140.4,303 M189.3,303.1l-32.5-0.1c-2.2,0-4-1.8-4-4c0-0.9,0.3-1.7,0.8-2.3l16.6-16.7
		c0.7-0.9,1.6-1.2,2.9-1.2c1,0,1.9,0.4,2.6,0.9l17,17.1c0.4,0.6,0.7,1.4,0.7,2.2C193.2,301.3,191.5,303.1,189.3,303.1"/>
	<polyline fill="#666666" points="280.5,333.4 280.5,268.7 247.8,268.7 247.8,251.3 335.5,251.3 335.5,268.7 304.6,268.7 
		304.6,333.4 	"/>
	<polyline fill="#666666" points="346.6,333.4 346.6,251.3 425.6,251.3 425.6,269.3 367.6,269.3 367.6,284.8 424.4,284.8 424.4,301 
		367.6,301 367.6,317.2 425.6,317.2 425.6,333.4 	"/>
	<polyline fill="#666666" points="544.8,333.4 544.8,251.3 623.8,251.3 623.8,269.3 565.8,269.3 565.8,284.8 622.6,284.8 622.6,301 
		565.8,301 565.8,317.2 623.8,317.2 623.8,333.4 	"/>
	<polyline fill="#666666" points="734.8,333.5 696.5,290.2 731,251.3 702.2,251.3 682.2,273.9 662.1,251.3 633.4,251.3 667.7,290.2 
		629.4,333.4 658.4,333.4 682.1,306.6 705.8,333.5 	"/>
	<path fill="#666666" d="M462.8,268.1h38.3c12.5,0,12.8,16.8,0.5,16.8h-38.9 M441.1,251.3v82.1h21.6v-31.1H484l23.8,31.1h25.9
		c0,0-23.8-31.4-23.5-31.1c26.6,0.6,36.5-51-8.6-51H441.1z"/>
	<path fill="#666666" d="M743.5,328.9h2.2v-6.2h2.4l4.1,6.2h2.3l-4.2-6.4c2.3-0.2,4-1.5,4-4.1c0-2.9-1.8-4.3-5-4.3h-5.7
		 M745.7,320.6v-4.5h3.1c1.6,0,3.2,0.2,3.2,2.2c0,2.2-1.8,2.3-3.8,2.3H745.7z M735.9,321.4c0,7.9,7.3,14.2,15.6,12.3
		c4.6-1,8.3-4.7,9.3-9.3c1.9-8.3-4.3-15.6-12.3-15.6C741.5,308.8,735.9,314.4,735.9,321.4 M748.5,332c-5.7,0-10.4-4.7-10.4-10.6
		c0-5.9,4.6-10.6,10.4-10.6s10.4,4.7,10.4,10.6C758.9,327.3,754.3,332,748.5,332"/>
</g>
</svg>
