<?xml version="1.0" encoding="utf-8"?>
<!-- Generator: Adobe Illustrator 18.1.0, SVG Export Plug-In . SVG Version: 6.00 Build 0)  -->
<svg version="1.1" xmlns="http://www.w3.org/2000/svg" xmlns:xlink="http://www.w3.org/1999/xlink" x="0px" y="0px"
	 viewBox="0 0 841.9 595.3" enable-background="new 0 0 841.9 595.3" xml:space="preserve">
<g id="RED_BG_-_does_not_print">
</g>
<g id="White">
	<path fill="#666666" d="M634.2,160.5c-52.8,0-95.7,42.8-95.7,95.7c0,52.9,42.9,95.7,95.7,95.7c52.9,0,95.7-42.8,95.7-95.7
		C729.9,203.3,687.1,160.5,634.2,160.5z M685.1,253l7-6.9c-16.6,0-38.4,2.7-61.4,11l21.6,33.8h-17.9l-17.9-27.9
		c-11.7,5.4-23.4,12.3-34.7,21.3c0,0,8.4-13,31.8-25.7l-11.9-18.7l-31.3,51.1h-17.6l48.6-79.4l25.9,40.4
		c18.3-7.8,43.1-14.5,76.1-16.9l5.3-5.2l14.1,12L685.1,253z"/>
	<path fill="#666666" d="M202.8,258.1h-0.5L171.3,223c-3.8-4.4-9.2-6.8-14.6-6.8c-5.5,0-11,2.5-14.8,7l-58.6,68.9h18.9l50.7-59.6
		l0,0c1.4-1.5,2.6-2,3.9-2c1.2,0,2.4,0.4,3.8,1.9l22.7,25.7h-59.7l-15.1,16.1h89l15.7,17.8h19.2l-29.5-33.4V258.1z M445.3,214.6
		l-76.8,0c-11.7,0-21.2,9.5-21.2,21.3v34.6c0,11.8,9.5,21.3,21.2,21.3h76.8v-14.4h-76.8c-3.7,0-6.9-3.2-6.9-7v-34.6
		c0-3.8,3.2-6.9,6.9-6.9h76.8V214.6z M256.3,270.5v-54.7H242v54.7c0,11.8,9.5,21.3,21.2,21.3h68.1v-14.4h-68.1
		C259.5,277.5,256.3,274.3,256.3,270.5z M443.2,260.4V246h-87v14.4H443.2z"/>
	<g>
		<path fill="#666666" d="M94,401.4c-2.1-0.3-3.5-0.8-4.5-1.9c-0.8-0.9-1.2-2.2-1.2-4.2v-1.5c0-2,0.4-2.7,1.5-3.8l1.5-1.5
			c1.1-1.1,2.1-1.3,3.5-1.3h4.8c1.7,0,2.4,0.1,3.7,0.9l2.8,1.7l-1.8,3.2l-3.4-1.5c-0.5-0.2-0.9-0.3-1.6-0.3h-3.9
			c-0.5,0-0.7,0.1-1,0.3l-1.4,1.4c-0.3,0.3-0.4,0.5-0.4,0.8v1.5c0,1.3,0.4,1.7,1.9,1.9l6.2,0.8c2.3,0.3,3.7,0.7,4.6,1.5
			c0.9,0.9,1.4,2.2,1.4,4.3v1.5c0,2-0.4,2.7-1.5,3.8l-1.5,1.5c-1.1,1.1-2.1,1.3-3.5,1.3h-5.7c-1.7,0-2.4-0.1-3.7-0.9l-2.8-1.7
			l1.8-3.2l3.4,1.5c0.6,0.2,0.9,0.3,1.6,0.3h4.8c0.5,0,0.7-0.1,1-0.4l1.4-1.4c0.3-0.3,0.4-0.5,0.4-0.8v-1.3c0-1.3-0.4-1.6-1.8-1.8
			L94,401.4z"/>
		<path fill="#666666" d="M141.1,411.8h-4.3v-18.2l-5.9,9.4c-0.2,0.3-0.4,0.4-0.7,0.4h-2.3c-0.3,0-0.6-0.1-0.7-0.4l-6-9.4v18.2H117
			V388c0-0.4,0.2-0.6,0.6-0.6h3.3c0.7,0,1,0.2,1.3,0.7l6.9,10.8L136,388c0.3-0.5,0.6-0.6,1.2-0.6h3.3c0.4,0,0.6,0.2,0.6,0.6V411.8z"
			/>
		<path fill="#666666" d="M151.8,411.8v-11.5c0-1.9,0.2-3.1,1.2-4.7l3.8-6.2c1.1-1.7,1.6-2.2,3.9-2.2h2.1c2.3,0,2.8,0.5,3.8,2.2
			l3.9,6.2c1,1.6,1.2,2.9,1.2,4.7v11.5h-4.4v-6.2h-11.2v6.2H151.8z M161.1,391.3c-0.4,0-0.5,0-0.7,0.4l-3.6,5.9
			c-0.5,0.8-0.7,1.5-0.7,2.7v1.5h11.2v-1.5c0-1.2-0.2-1.8-0.7-2.7l-3.6-5.9c-0.2-0.3-0.3-0.4-0.7-0.4H161.1z"/>
		<path fill="#666666" d="M201.2,397.9c0,1.9-0.3,2.5-1.4,3.6l-1.1,1.1c-0.3,0.3-0.5,0.5-0.8,0.7l3.5,8.5h-4.7l-3.2-7.9h-6.9v7.9
			h-4.4v-23.1c0-0.9,0.4-1.2,1.2-1.2H195c1.8,0,2.6,0.2,3.7,1.3l1.1,1.1c1.1,1.1,1.4,1.7,1.4,3.6V397.9z M196.8,393.6
			c0-0.5-0.1-0.7-0.5-1.1l-0.8-0.8c-0.4-0.4-0.6-0.5-1.2-0.5h-7.7v8.8h7.7c0.5,0,0.7-0.1,1-0.4l1.1-1.1c0.3-0.3,0.4-0.5,0.4-0.8
			V393.6z"/>
		<path fill="#666666" d="M221.6,411.8h-4.4v-20.5h-7.5v-3.8h19.3v3.8h-7.5V411.8z"/>
		<path fill="#666666" d="M239.4,411.8c-0.9,0-1.2-0.4-1.2-1.2v-21.9c0-0.9,0.4-1.2,1.2-1.2h15.2v3.8h-12.1v6.4h10v3.8h-10v6.4h12.3
			v3.8H239.4z"/>
		<path fill="#666666" d="M284.3,397.9c0,1.9-0.3,2.5-1.4,3.6l-1.1,1.1c-0.3,0.3-0.5,0.5-0.8,0.7l3.5,8.5h-4.7l-3.2-7.9h-6.9v7.9
			h-4.4v-23.1c0-0.9,0.4-1.2,1.2-1.2h11.5c1.8,0,2.6,0.2,3.7,1.3l1.1,1.1c1.1,1.1,1.4,1.7,1.4,3.6V397.9z M280,393.6
			c0-0.5-0.1-0.7-0.5-1.1l-0.8-0.8c-0.4-0.4-0.6-0.5-1.2-0.5h-7.7v8.8h7.7c0.5,0,0.7-0.1,1-0.4l1.1-1.1c0.3-0.3,0.4-0.5,0.4-0.8
			V393.6z"/>
		<path fill="#666666" d="M297.7,415.1c-0.2,0.6-0.5,0.8-1.1,0.8h-2.1c-0.5,0-0.7-0.2-0.6-0.7l1.2-8.6h3.9c0.7,0,0.9,0.4,0.7,0.9
			L297.7,415.1z"/>
		<path fill="#666666" d="M330.8,401.4c-2.1-0.3-3.5-0.8-4.5-1.9c-0.8-0.9-1.2-2.2-1.2-4.2v-1.5c0-2,0.4-2.7,1.5-3.8l1.5-1.5
			c1.1-1.1,2.1-1.3,3.5-1.3h4.8c1.7,0,2.4,0.1,3.7,0.9l2.8,1.7l-1.8,3.2l-3.4-1.5c-0.5-0.2-0.9-0.3-1.6-0.3h-3.9
			c-0.5,0-0.7,0.1-1,0.3l-1.4,1.4c-0.3,0.3-0.4,0.5-0.4,0.8v1.5c0,1.3,0.4,1.7,1.9,1.9l6.2,0.8c2.3,0.3,3.7,0.7,4.6,1.5
			c0.9,0.9,1.4,2.2,1.4,4.3v1.5c0,2-0.4,2.7-1.5,3.8l-1.5,1.5c-1.1,1.1-2.1,1.3-3.5,1.3h-5.7c-1.7,0-2.4-0.1-3.7-0.9l-2.8-1.7
			l1.8-3.2l3.4,1.5c0.6,0.2,0.9,0.3,1.6,0.3h4.8c0.5,0,0.7-0.1,1-0.4l1.4-1.4c0.3-0.3,0.4-0.5,0.4-0.8v-1.3c0-1.3-0.4-1.6-1.8-1.8
			L330.8,401.4z"/>
		<path fill="#666666" d="M353.5,411.8v-11.5c0-1.9,0.2-3.1,1.2-4.7l3.9-6.2c1.1-1.7,1.6-2.2,3.9-2.2h2.1c2.3,0,2.8,0.5,3.8,2.2
			l3.9,6.2c1,1.6,1.2,2.9,1.2,4.7v11.5H369v-6.2h-11.2v6.2H353.5z M362.8,391.3c-0.4,0-0.5,0-0.7,0.4l-3.6,5.9
			c-0.5,0.8-0.7,1.5-0.7,2.7v1.5H369v-1.5c0-1.2-0.2-1.8-0.7-2.7l-3.6-5.9c-0.2-0.3-0.3-0.4-0.7-0.4H362.8z"/>
		<path fill="#666666" d="M384,388.6c0-0.9,0.4-1.2,1.2-1.2h15.2v3.8h-12.1v6.4h10v3.8h-10v10.3H384V388.6z"/>
		<path fill="#666666" d="M411.2,411.8c-0.9,0-1.2-0.4-1.2-1.2v-21.9c0-0.9,0.4-1.2,1.2-1.2h15.2v3.8h-12.1v6.4h10v3.8h-10v6.4h12.3
			v3.8H411.2z"/>
		<path fill="#666666" d="M456.1,397.9c0,1.9-0.3,2.5-1.4,3.6l-1.1,1.1c-0.3,0.3-0.5,0.5-0.8,0.7l3.5,8.5h-4.7l-3.2-7.9h-6.9v7.9
			h-4.4v-23.1c0-0.9,0.4-1.2,1.2-1.2H450c1.8,0,2.6,0.2,3.7,1.3l1.1,1.1c1.1,1.1,1.4,1.7,1.4,3.6V397.9z M451.8,393.6
			c0-0.5-0.1-0.7-0.5-1.1l-0.8-0.8c-0.4-0.4-0.6-0.5-1.2-0.5h-7.7v8.8h7.7c0.5,0,0.7-0.1,1-0.4l1.1-1.1c0.3-0.3,0.4-0.5,0.4-0.8
			V393.6z"/>
		<path fill="#666666" d="M469.5,415.1c-0.2,0.6-0.5,0.8-1.1,0.8h-2.1c-0.5,0-0.7-0.2-0.6-0.7l1.2-8.6h3.9c0.7,0,0.9,0.4,0.7,0.9
			L469.5,415.1z"/>
		<path fill="#666666" d="M502.6,401.4c-2.1-0.3-3.5-0.8-4.5-1.9c-0.8-0.9-1.2-2.2-1.2-4.2v-1.5c0-2,0.4-2.7,1.5-3.8l1.5-1.5
			c1.1-1.1,2.1-1.3,3.5-1.3h4.8c1.7,0,2.4,0.1,3.7,0.9l2.8,1.7l-1.8,3.2l-3.4-1.5c-0.5-0.2-0.9-0.3-1.6-0.3h-3.9
			c-0.5,0-0.7,0.1-1,0.3l-1.4,1.4c-0.3,0.3-0.4,0.5-0.4,0.8v1.5c0,1.3,0.4,1.7,1.9,1.9l6.2,0.8c2.3,0.3,3.7,0.7,4.6,1.5
			c0.9,0.9,1.4,2.2,1.4,4.3v1.5c0,2-0.4,2.7-1.5,3.8l-1.5,1.5c-1.1,1.1-2.1,1.3-3.5,1.3h-5.7c-1.7,0-2.4-0.1-3.7-0.9l-2.8-1.7
			l1.8-3.2l3.4,1.5c0.6,0.2,0.9,0.3,1.6,0.3h4.8c0.5,0,0.7-0.1,1-0.4l1.4-1.4c0.3-0.3,0.4-0.5,0.4-0.8v-1.3c0-1.3-0.4-1.6-1.8-1.8
			L502.6,401.4z"/>
		<path fill="#666666" d="M535.6,411.8h-4.4v-20.5h-7.5v-3.8h19.3v3.8h-7.5V411.8z"/>
		<path fill="#666666" d="M571.1,397.9c0,1.9-0.3,2.5-1.4,3.6l-1.1,1.1c-0.3,0.3-0.5,0.5-0.8,0.7l3.5,8.5h-4.7l-3.2-7.9h-6.9v7.9
			h-4.4v-23.1c0-0.9,0.4-1.2,1.2-1.2h11.5c1.8,0,2.6,0.2,3.7,1.3l1.1,1.1c1.1,1.1,1.4,1.7,1.4,3.6V397.9z M566.7,393.6
			c0-0.5-0.1-0.7-0.5-1.1l-0.8-0.8c-0.3-0.4-0.6-0.5-1.2-0.5h-7.7v8.8h7.7c0.5,0,0.7-0.1,1-0.4l1.1-1.1c0.3-0.3,0.4-0.5,0.4-0.8
			V393.6z"/>
		<path fill="#666666" d="M601.8,405.4c0,2-0.4,2.7-1.5,3.8l-1.5,1.5c-1.1,1.1-2.1,1.3-3.5,1.3h-7.5c-1.4,0-2.4-0.2-3.5-1.3
			l-1.5-1.5c-1.1-1.1-1.5-1.8-1.5-3.8v-11.6c0-2,0.4-2.7,1.5-3.8l1.5-1.5c1.1-1.1,2.1-1.3,3.5-1.3h7.5c1.4,0,2.4,0.2,3.5,1.3
			l1.5,1.5c1.1,1.1,1.5,1.8,1.5,3.8V405.4z M585.7,405.3c0,0.4,0.1,0.5,0.3,0.8l1.4,1.4c0.3,0.3,0.5,0.4,1,0.4h6.1
			c0.5,0,0.7-0.1,1-0.4l1.4-1.4c0.3-0.3,0.4-0.5,0.4-0.8v-11.4c0-0.4-0.1-0.5-0.4-0.8l-1.4-1.4c-0.3-0.3-0.6-0.3-1-0.3h-6.1
			c-0.5,0-0.7,0.1-1,0.3l-1.4,1.4c-0.3,0.3-0.3,0.5-0.3,0.8V405.3z"/>
		<path fill="#666666" d="M616.2,394.4v17.3h-4.1V388c0-0.4,0.2-0.6,0.6-0.6h2.5c0.6,0,0.7,0.1,1.2,0.7l12.1,16.7v-17.4h4.1v23.7
			c0,0.4-0.2,0.6-0.6,0.6h-2.6c-0.5,0-0.8-0.2-1.1-0.7L616.2,394.4z"/>
		<path fill="#666666" d="M650.1,391.3c-0.5,0-0.8,0.1-1,0.4l-1.4,1.4c-0.3,0.3-0.4,0.5-0.4,0.8v11.5c0,0.4,0.1,0.6,0.4,0.8l1.4,1.4
			c0.3,0.3,0.6,0.4,1,0.4h5.8c0.5,0,0.7-0.1,1-0.4l1.4-1.4c0.3-0.3,0.4-0.5,0.4-0.8v-3.8H655V398h7.2c0.7,0,0.9,0.4,0.9,0.9v6.4
			c0,2-0.4,2.7-1.5,3.8l-1.5,1.5c-1.1,1.1-2.1,1.3-3.5,1.3h-7.2c-1.4,0-2.4-0.2-3.5-1.3l-1.5-1.5c-1.1-1.1-1.5-1.8-1.5-3.8v-11.6
			c0-2,0.4-2.7,1.5-3.8l1.5-1.5c1.1-1.1,2.1-1.3,3.5-1.3h6.2c1.7,0,2.4,0.1,3.6,0.9l3,1.7l-1.8,3.3l-3.4-1.5
			c-0.5-0.2-0.9-0.3-1.6-0.3H650.1z"/>
		<path fill="#666666" d="M674.5,411.8c-0.9,0-1.2-0.4-1.2-1.2v-21.9c0-0.9,0.3-1.2,1.2-1.2h15.2v3.8h-12.1v6.4h10v3.8h-10v6.4h12.3
			v3.8H674.5z"/>
		<path fill="#666666" d="M719.5,397.9c0,1.9-0.3,2.5-1.4,3.6l-1.1,1.1c-0.3,0.3-0.5,0.5-0.8,0.7l3.5,8.5H715l-3.2-7.9H705v7.9h-4.4
			v-23.1c0-0.9,0.4-1.2,1.2-1.2h11.5c1.8,0,2.6,0.2,3.7,1.3l1.1,1.1c1.1,1.1,1.4,1.7,1.4,3.6V397.9z M715.1,393.6
			c0-0.5-0.1-0.7-0.5-1.1l-0.8-0.8c-0.4-0.4-0.6-0.5-1.2-0.5H705v8.8h7.7c0.5,0,0.7-0.1,1-0.4l1.1-1.1c0.3-0.3,0.4-0.5,0.4-0.8
			V393.6z"/>
	</g>
</g>
</svg>
