<?xml version="1.0" encoding="utf-8"?>
<!-- Generator: Adobe Illustrator 18.1.0, SVG Export Plug-In . SVG Version: 6.00 Build 0)  -->
<svg version="1.1" xmlns="http://www.w3.org/2000/svg" xmlns:xlink="http://www.w3.org/1999/xlink" x="0px" y="0px"
	 viewBox="0 0 841.9 595.3" enable-background="new 0 0 841.9 595.3" xml:space="preserve">
<g id="RED_BG_-_does_not_print">
</g>
<g id="White">
	<g>
		<g>
			<polygon fill="#666666" points="491.3,254 491.3,307.7 287.2,307.7 287.2,323.4 551.3,323.4 551.3,254 491.3,254 			"/>
			<polygon fill="#666666" points="491.3,254 491.3,307.7 287.2,307.7 287.2,323.4 551.3,323.4 551.3,254 491.3,254 			"/>
			<polygon fill="#666666" points="346.5,246.9 346.5,193.2 552,193.2 552,177.5 287.1,177.5 287.1,246.9 346.5,246.9 			"/>
			<polygon fill="#666666" points="346.5,246.9 346.5,193.2 552,193.2 552,177.5 287.1,177.5 287.1,246.9 346.5,246.9 			"/>
			<path fill-rule="evenodd" clip-rule="evenodd" fill="#666666" d="M470,221.5v16c0,1.5,0.2,2.6,0.5,3.4c0.6,1.3,1.9,2,3.7,2
				c2.4,0,4-1,4.9-2.9c0.5-1,0.7-2.4,0.7-4.1v-14.5h7v26.6h-6.7v-3.8c-0.1,0.1-0.2,0.3-0.5,0.7c-0.3,0.4-0.6,0.8-0.9,1.1
				c-1.1,1-2.1,1.6-3.2,2c-1,0.4-2.2,0.5-3.6,0.5c-3.9,0-6.6-1.4-7.9-4.2c-0.8-1.6-1.1-3.9-1.1-6.9v-16H470L470,221.5z M476.5,211.7
				h6.4v5.8h-6.4V211.7L476.5,211.7z M466.8,211.7h6.4v5.8h-6.4V211.7L466.8,211.7z"/>
			<path fill-rule="evenodd" clip-rule="evenodd" fill="#666666" d="M516.5,228c-0.9,1-1.4,2.4-1.7,4.1h10.8
				c-0.1-1.8-0.7-3.2-1.7-4.2c-1-1-2.2-1.4-3.7-1.4C518.6,226.5,517.4,227,516.5,228L516.5,228z M526.2,222.1
				c1.8,0.8,3.2,2.1,4.4,3.9c1,1.6,1.7,3.4,2,5.5c0.2,1.2,0.3,3,0.2,5.3h-18.2c0.1,2.7,0.9,4.5,2.5,5.6c1,0.7,2.1,1,3.5,1
				c1.4,0,2.6-0.4,3.5-1.2c0.5-0.4,0.9-1,1.3-1.8h7.1c-0.2,1.6-1,3.2-2.5,4.8c-2.3,2.6-5.5,3.9-9.6,3.9c-3.4,0-6.4-1.1-8.9-3.3
				c-2.6-2.2-3.9-5.7-3.9-10.6c0-4.6,1.2-8.1,3.5-10.6c2.3-2.5,5.4-3.7,9.1-3.7C522.4,220.8,524.4,221.2,526.2,222.1L526.2,222.1z"
				/>
			<path fill="#666666" d="M291.3,278.3c0.2,1.6,0.7,2.9,1.3,3.7c1.2,1.5,3.3,2.2,6.3,2.2c1.8,0,3.2-0.2,4.3-0.6
				c2.1-0.7,3.1-2.1,3.1-4.2c0-1.2-0.5-2.1-1.6-2.8c-1-0.6-2.7-1.2-4.9-1.7l-3.8-0.9c-3.7-0.8-6.3-1.8-7.7-2.8
				c-2.4-1.7-3.6-4.2-3.6-7.8c0-3.2,1.2-5.9,3.5-8c2.3-2.1,5.8-3.2,10.3-3.2c3.8,0,7,1,9.7,3c2.7,2,4.1,4.9,4.2,8.7h-7.2
				c-0.1-2.2-1.1-3.7-2.8-4.6c-1.2-0.6-2.6-0.9-4.4-0.9c-1.9,0-3.5,0.4-4.6,1.2c-1.2,0.8-1.7,1.9-1.7,3.3c0,1.3,0.6,2.2,1.7,2.9
				c0.7,0.4,2.3,0.9,4.7,1.5l6.2,1.5c2.7,0.6,4.8,1.5,6.1,2.6c2.1,1.7,3.2,4.1,3.2,7.3c0,3.3-1.3,6-3.8,8.2c-2.5,2.2-6,3.2-10.6,3.2
				c-4.7,0-8.4-1.1-11-3.2c-2.7-2.1-4-5.1-4-8.8H291.3L291.3,278.3z"/>
			<path fill="#666666" d="M318.7,294.5l0.9,0c0.7,0,1.3,0,2-0.1c0.6-0.1,1.1-0.3,1.6-0.6c0.4-0.3,0.8-0.9,1.1-1.7
				c0.4-0.9,0.5-1.4,0.4-1.6l-9.8-27.7h7.7l5.8,19.6l5.5-19.6h7.4l-9.1,26.1c-1.8,5-3.1,8.2-4.2,9.4c-1,1.2-3.1,1.8-6.1,1.8
				c-0.6,0-1.1,0-1.5,0c-0.4,0-0.9,0-1.7-0.1V294.5L318.7,294.5z"/>
			<path fill="#666666" d="M349.8,280.9c0.1,1.2,0.5,2.1,1,2.6c0.9,0.9,2.5,1.4,4.8,1.4c1.4,0,2.4-0.2,3.2-0.6
				c0.8-0.4,1.2-1,1.2-1.8c0-0.8-0.3-1.4-1-1.8c-0.6-0.4-3.1-1.1-7.2-2.1c-3-0.7-5.1-1.7-6.4-2.8c-1.2-1.1-1.9-2.7-1.9-4.8
				c0-2.5,1-4.6,2.9-6.3c1.9-1.8,4.6-2.7,8.1-2.7c3.3,0,6,0.7,8.1,2c2.1,1.3,3.3,3.6,3.6,6.9h-6.9c-0.1-0.9-0.4-1.6-0.8-2.1
				c-0.8-0.9-2.1-1.4-3.9-1.4c-1.5,0-2.6,0.2-3.2,0.7c-0.6,0.5-1,1-1,1.7c0,0.8,0.3,1.4,1,1.7c0.7,0.4,3.1,1,7.2,1.9
				c2.8,0.7,4.8,1.6,6.2,2.9c1.4,1.3,2,3,2,5c0,2.6-1,4.8-2.9,6.5c-2,1.7-5,2.5-9.1,2.5c-4.2,0-7.3-0.9-9.3-2.6c-2-1.8-3-4-3-6.8
				H349.8L349.8,280.9z"/>
			<path fill="#666666" d="M368.4,268v-4.9h3.7v-7.4h6.9v7.4h4.3v4.9H379v14c0,1.1,0.1,1.8,0.4,2c0.3,0.3,1.1,0.4,2.5,0.4
				c0.2,0,0.4,0,0.7,0c0.2,0,0.5,0,0.7-0.1v5.2l-3.3,0.1c-3.3,0.1-5.5-0.5-6.7-1.7c-0.8-0.8-1.2-2-1.2-3.7V268H368.4L368.4,268z"/>
			<path fill-rule="evenodd" clip-rule="evenodd" fill="#666666" d="M393.5,269.4c-0.9,1-1.4,2.4-1.7,4.1h10.8
				c-0.1-1.8-0.7-3.2-1.7-4.2c-1-1-2.2-1.4-3.7-1.4C395.7,267.8,394.4,268.3,393.5,269.4L393.5,269.4z M403.2,263.4
				c1.8,0.8,3.2,2.1,4.4,3.9c1,1.6,1.7,3.4,2,5.5c0.2,1.2,0.3,3,0.2,5.3h-18.2c0.1,2.7,0.9,4.5,2.5,5.6c1,0.7,2.1,1,3.5,1
				c1.4,0,2.6-0.4,3.5-1.2c0.5-0.4,0.9-1,1.3-1.8h7.1c-0.2,1.6-1,3.2-2.5,4.8c-2.3,2.6-5.5,3.9-9.5,3.9c-3.4,0-6.4-1.1-9-3.3
				c-2.6-2.2-3.9-5.7-3.9-10.6c0-4.6,1.2-8.1,3.5-10.6c2.3-2.5,5.4-3.7,9.1-3.7C399.5,262.1,401.5,262.5,403.2,263.4L403.2,263.4z"
				/>
			<path fill="#666666" d="M446.7,262.9c1.1,0.5,2.2,1.3,3.1,2.4c0.7,0.9,1.3,2.1,1.5,3.4c0.2,0.9,0.2,2.2,0.2,3.9l0,16.7h-7.1
				v-16.9c0-1-0.2-1.8-0.5-2.5c-0.6-1.2-1.7-1.9-3.4-1.9c-1.9,0-3.2,0.8-4,2.4c-0.4,0.8-0.6,1.9-0.6,3v15.8h-7v-15.8
				c0-1.6-0.2-2.7-0.5-3.4c-0.6-1.3-1.7-1.9-3.4-1.9c-2,0-3.3,0.6-4,1.9c-0.4,0.7-0.6,1.8-0.6,3.3v16h-7v-26.5h6.7v3.9
				c0.9-1.4,1.7-2.4,2.4-3c1.4-1,3.1-1.6,5.2-1.6c2,0,3.7,0.4,4.9,1.3c1,0.8,1.8,1.9,2.3,3.2c0.9-1.6,2-2.7,3.4-3.4
				c1.4-0.7,3-1.1,4.8-1.1C444.4,262.2,445.6,262.5,446.7,262.9L446.7,262.9z"/>
			<path fill="#666666" d="M462.3,280.9c0.2,1.2,0.5,2.1,1,2.6c0.9,0.9,2.4,1.4,4.8,1.4c1.4,0,2.4-0.2,3.2-0.6
				c0.8-0.4,1.2-1,1.2-1.8c0-0.8-0.3-1.4-1-1.8c-0.7-0.4-3.1-1.1-7.2-2.1c-3-0.7-5.1-1.7-6.4-2.8c-1.2-1.1-1.9-2.7-1.9-4.8
				c0-2.5,1-4.6,2.9-6.3c1.9-1.8,4.6-2.7,8.1-2.7c3.3,0,6,0.7,8.1,2c2.1,1.3,3.3,3.6,3.6,6.9h-6.9c-0.1-0.9-0.4-1.6-0.8-2.1
				c-0.8-0.9-2.1-1.4-3.9-1.4c-1.5,0-2.6,0.2-3.2,0.7c-0.6,0.5-1,1-1,1.7c0,0.8,0.3,1.4,1,1.7c0.7,0.4,3.1,1,7.2,1.9
				c2.8,0.7,4.8,1.6,6.2,2.9c1.4,1.3,2,3,2,5c0,2.6-1,4.8-2.9,6.5c-2,1.7-5,2.5-9.1,2.5c-4.2,0-7.3-0.9-9.3-2.6c-2-1.8-3-4-3-6.8
				H462.3L462.3,280.9z"/>
			<path fill-rule="evenodd" clip-rule="evenodd" fill="#666666" d="M545.6,215.3c4.9,0,8.8-4,8.8-8.8c0-4.8-3.9-8.8-8.8-8.8
				c-4.9,0-8.8,4-8.8,8.8C536.8,211.3,540.7,215.3,545.6,215.3L545.6,215.3z M545.6,214.1c-4.3,0-7.4-3.4-7.4-7.7
				c0-4.3,3.1-7.6,7.4-7.6c4.3,0,7.4,3.4,7.4,7.6C553,210.8,549.9,214.1,545.6,214.1L545.6,214.1z M547.1,206.8
				c1.7,0,3.1-0.8,3.1-2.7c0-1.6-0.9-2.6-3.5-2.6h-4.3v9.8h1.2v-4.5h2.2l2.8,4.5h1.4L547.1,206.8L547.1,206.8z M543.6,205.9v-3.5
				h2.8c1.2,0,2.5,0.2,2.5,1.7c0,2-2,1.8-3.4,1.8H543.6L543.6,205.9z"/>
			<path fill="#666666" d="M367.1,237c0.2,1.6,0.7,2.9,1.3,3.7c1.2,1.5,3.3,2.2,6.3,2.2c1.8,0,3.2-0.2,4.3-0.6
				c2.1-0.7,3.1-2.1,3.1-4.2c0-1.2-0.5-2.1-1.6-2.8c-1-0.6-2.7-1.2-4.9-1.7l-3.8-0.9c-3.7-0.8-6.3-1.8-7.7-2.8
				c-2.4-1.7-3.6-4.2-3.6-7.8c0-3.2,1.2-5.9,3.5-8c2.3-2.1,5.8-3.2,10.3-3.2c3.8,0,7,1,9.7,3c2.7,2,4.1,4.9,4.2,8.7H381
				c-0.1-2.2-1.1-3.7-2.8-4.6c-1.2-0.6-2.6-0.9-4.4-0.9c-1.9,0-3.5,0.4-4.6,1.2c-1.2,0.8-1.7,1.9-1.7,3.3c0,1.3,0.6,2.2,1.7,2.9
				c0.7,0.4,2.3,0.9,4.7,1.5l6.2,1.5c2.7,0.7,4.8,1.5,6.1,2.6c2.1,1.7,3.2,4.1,3.2,7.3c0,3.3-1.3,6-3.8,8.2c-2.5,2.2-6,3.2-10.6,3.2
				c-4.7,0-8.4-1.1-11-3.2c-2.7-2.1-4-5.1-4-8.8H367.1L367.1,237z"/>
			<path fill="#666666" d="M409.3,231c-0.1-1-0.5-1.9-1-2.7c-0.8-1.1-2-1.6-3.6-1.6c-2.3,0-3.9,1.2-4.8,3.5
				c-0.5,1.2-0.7,2.9-0.7,4.9c0,2,0.2,3.5,0.7,4.7c0.8,2.2,2.4,3.3,4.7,3.3c1.6,0,2.8-0.4,3.5-1.3c0.7-0.9,1.1-2,1.2-3.4h7.1
				c-0.2,2.1-0.9,4.1-2.3,6c-2.2,3-5.4,4.6-9.7,4.6c-4.3,0-7.4-1.3-9.4-3.8c-2-2.5-3-5.8-3-9.9c0-4.6,1.1-8.1,3.3-10.7
				c2.2-2.5,5.3-3.8,9.2-3.8c3.3,0,6,0.7,8.2,2.2c2.1,1.5,3.4,4.1,3.8,7.9H409.3L409.3,231z"/>
			<path fill="#666666" d="M438.8,221.7c1.4,0.6,2.5,1.4,3.3,2.6c0.7,1,1.2,2,1.3,3.1c0.2,1,0.2,2.7,0.2,5.1v15.6h-7.1v-16.2
				c0-1.4-0.2-2.6-0.7-3.5c-0.6-1.2-1.8-1.9-3.6-1.9c-1.8,0-3.2,0.6-4.2,1.9c-0.9,1.2-1.4,3-1.4,5.2v14.4h-6.9v-35.8h6.9V225
				c1-1.5,2.2-2.6,3.5-3.2c1.3-0.6,2.7-0.9,4.2-0.9C435.9,220.8,437.4,221.1,438.8,221.7L438.8,221.7z"/>
			<polygon fill="#666666" points="456.3,248.1 449.3,248.1 449.3,212.2 456.3,212.2 456.3,248.1 			"/>
			<path fill="#666666" d="M489.8,226.7v-4.9h3.7v-7.4h6.9v7.4h4.3v4.9h-4.3v14c0,1.1,0.1,1.8,0.4,2c0.3,0.3,1.1,0.4,2.5,0.4
				c0.2,0,0.4,0,0.7,0c0.2,0,0.5,0,0.7,0v5.2l-3.3,0.1c-3.3,0.1-5.5-0.5-6.7-1.7c-0.8-0.8-1.2-2-1.2-3.7v-16.4H489.8L489.8,226.7z"
				/>
			<path fill="#666666" d="M552.7,220.9c0.1,0,0.3,0,0.6,0v7.1c-0.4,0-0.8-0.1-1.2-0.1c-0.3,0-0.6,0-0.8,0c-2.8,0-4.7,0.9-5.6,2.7
				c-0.5,1-0.8,2.6-0.8,4.7v12.7h-7v-26.6h6.6v4.6c1.1-1.8,2-3,2.8-3.6c1.3-1.1,3-1.6,5.1-1.6C552.5,220.9,552.6,220.9,552.7,220.9
				L552.7,220.9z"/>
		</g>
		<g>
			<g>
				<path fill="#666666" d="M78.8,380h8.6c4.8,0,6.6,3,6.6,6.1c0,3.1-1.8,6.1-6.6,6.1H83v6.8h-4.2V380z M83,388.9h3.2
					c1.9,0,3.7-0.4,3.7-2.8c0-2.4-1.8-2.8-3.7-2.8H83V388.9z"/>
				<path fill="#666666" d="M114.4,380h10.2c3.4,0,5.6,2.4,5.6,5.2c0,2.2-0.9,3.9-3,4.8v0.1c2,0.6,2.6,2.5,2.8,4.4
					c0.1,1.2,0,3.5,0.8,4.5h-4.2c-0.5-1.2-0.5-3-0.7-4.5c-0.3-2-1.1-2.9-3.2-2.9h-4.2v7.4h-4.2V380z M118.6,388.6h4.6
					c1.9,0,2.9-0.8,2.9-2.7c0-1.8-1-2.6-2.9-2.6h-4.6V388.6z"/>
				<path fill="#666666" d="M160,379.5c5.9,0,9.3,4.4,9.3,10c0,5.5-3.5,9.9-9.3,9.9s-9.3-4.4-9.3-9.9
					C150.6,383.9,154.1,379.5,160,379.5z M160,395.9c3.8,0,5.2-3.2,5.2-6.4c0-3.3-1.4-6.5-5.2-6.5s-5.2,3.2-5.2,6.5
					C154.8,392.7,156.2,395.9,160,395.9z"/>
				<path fill="#666666" d="M190,380h13.4v3.5h-9.2v4.4h8v3.2h-8v7.8H190V380z"/>
				<path fill="#666666" d="M223.6,380h4.2v19h-4.2V380z"/>
				<path fill="#666666" d="M249.3,380h4.2v15.5h9.3v3.5h-13.4V380z"/>
				<path fill="#666666" d="M282.9,380h14.2v3.5h-10v4.1h9.2v3.2h-9.2v4.7h10.2v3.5h-14.4V380z"/>
			</g>
			<path fill="#666666" d="M350.7,379.5c5.9,0,9.3,4.4,9.3,10c0,5.5-3.5,9.9-9.3,9.9c-5.9,0-9.3-4.4-9.3-9.9
				C341.4,383.9,344.9,379.5,350.7,379.5z M350.7,395.9c3.8,0,5.2-3.2,5.2-6.4c0-3.3-1.4-6.5-5.2-6.5c-3.7,0-5.2,3.2-5.2,6.5
				C345.6,392.7,347,395.9,350.7,395.9z"/>
			<path fill="#666666" d="M380.8,380h13.4v3.5h-9.2v4.4h8v3.2h-8v7.8h-4.2V380z"/>
			<path fill="#666666" d="M440.2,380h4.2v19h-4.2V380z"/>
			<path fill="#666666" d="M465.9,380h4.1l7.9,12.7h0.1V380h3.9v19h-4.2l-7.9-12.7h-0.1V399h-3.9V380z"/>
			<path fill="#666666" d="M503.4,380h4.1l7.9,12.7h0.1V380h3.9v19h-4.2l-7.9-12.7h-0.1V399h-3.9V380z"/>
			<path fill="#666666" d="M549.5,379.5c5.9,0,9.3,4.4,9.3,10c0,5.5-3.5,9.9-9.3,9.9c-5.9,0-9.3-4.4-9.3-9.9
				C540.1,383.9,543.6,379.5,549.5,379.5z M549.5,395.9c3.8,0,5.2-3.2,5.2-6.4c0-3.3-1.4-6.5-5.2-6.5c-3.7,0-5.2,3.2-5.2,6.5
				C544.3,392.7,545.7,395.9,549.5,395.9z"/>
			<path fill="#666666" d="M588.3,399h-4.7l-6.2-19h4.3l4.2,13.3h0.1l4.3-13.3h4.3L588.3,399z"/>
			<path fill="#666666" d="M619.3,380h4.3l7.1,19h-4.3l-1.4-4.2h-7.1l-1.5,4.2h-4.2L619.3,380z M618.9,391.6h4.9l-2.4-7h-0.1
				L618.9,391.6z"/>
			<path fill="#666666" d="M654.4,383.5h-5.7V380h15.6v3.5h-5.7V399h-4.2V383.5z"/>
			<path fill="#666666" d="M684.3,380h4.2v19h-4.2V380z"/>
			<path fill="#666666" d="M716.5,379.5c5.9,0,9.3,4.4,9.3,10c0,5.5-3.5,9.9-9.3,9.9s-9.3-4.4-9.3-9.9
				C707.1,383.9,710.6,379.5,716.5,379.5z M716.5,395.9c3.8,0,5.2-3.2,5.2-6.4c0-3.3-1.4-6.5-5.2-6.5c-3.7,0-5.2,3.2-5.2,6.5
				C711.3,392.7,712.7,395.9,716.5,395.9z"/>
			<path fill="#666666" d="M743.7,380h4.1l7.9,12.7h0.1V380h3.9v19h-4.2l-7.9-12.7h-0.1V399h-3.9V380z"/>
		</g>
	</g>
</g>
</svg>
