<?xml version="1.0" encoding="utf-8"?>
<!-- Generator: Adobe Illustrator 18.1.0, SVG Export Plug-In . SVG Version: 6.00 Build 0)  -->
<svg version="1.1" xmlns="http://www.w3.org/2000/svg" xmlns:xlink="http://www.w3.org/1999/xlink" x="0px" y="0px"
	 viewBox="0 0 841.9 595.3" enable-background="new 0 0 841.9 595.3" xml:space="preserve">
<g id="RED_BG_-_does_not_print">
</g>
<g id="White">
	<g>
		<rect x="80.7" y="171" fill="#666666" width="679.2" height="234.9"/>
		<text transform="matrix(0 -1 1 0 184.4293 388.9365)" fill="#FFFFFF" font-family="'Helvetica'" font-size="100.9834">THE </text>
		<g>
			<path fill="#FFFFFF" d="M214.4,193.3H302c14.4,0,26.3,2.1,35.7,6.4c17.8,8.2,26.7,23.4,26.7,45.5c0,11.5-2.4,21-7.1,28.3
				c-4.8,7.3-11.4,13.2-20,17.7c7.5,3.1,13.2,7.1,17,12.1c3.8,5,5.9,13.1,6.4,24.3l0.9,25.8c0.3,7.3,0.9,12.8,1.8,16.4
				c1.6,6.1,4.4,10.1,8.4,11.8v4.3h-32c-0.9-1.7-1.6-3.8-2.1-6.4c-0.5-2.6-1-7.7-1.3-15.2l-1.6-32.1c-0.6-12.6-5.1-21-13.6-25.3
				c-4.8-2.4-12.4-3.5-22.8-3.5h-57.7v82.6h-26.1V193.3z M299.2,281.6c11.9,0,21.3-2.4,28.2-7.3c6.9-4.9,10.4-13.7,10.4-26.5
				c0-13.7-4.8-23.1-14.5-28.1c-5.2-2.6-12.1-3.9-20.8-3.9h-62v65.8H299.2z"/>
			<path fill="#FFFFFF" d="M407.7,193.3h139.8v23.6H433.2v58.5h105.7v22.3H433.2V363h116.3v22.9H407.7V193.3z"/>
			<path fill="#FFFFFF" d="M586.9,193.3h86.2c17,0,30.8,4.8,41.3,14.5c10.5,9.7,15.7,23.2,15.7,40.7c0,15-4.7,28.1-14,39.3
				c-9.4,11.1-23.7,16.7-42.9,16.7H613v81.4h-26.1V193.3z M688.1,219.8c-5.7-2.7-13.6-4.1-23.6-4.1H613v66.7h51.6
				c11.6,0,21.1-2.5,28.3-7.5c7.2-5,10.9-13.8,10.9-26.4C703.7,234.5,698.5,224.9,688.1,219.8z"/>
		</g>
	</g>
</g>
</svg>
