<?xml version="1.0" encoding="utf-8"?>
<!-- Generator: Adobe Illustrator 18.1.0, SVG Export Plug-In . SVG Version: 6.00 Build 0)  -->
<svg version="1.1" xmlns="http://www.w3.org/2000/svg" xmlns:xlink="http://www.w3.org/1999/xlink" x="0px" y="0px"
	 viewBox="0 0 841.9 595.3" enable-background="new 0 0 841.9 595.3" xml:space="preserve">
<g id="RED_BG_-_does_not_print">
</g>
<g id="White">
	<g>
		<g>
			<path fill="#666666" d="M319.3,182.4V218h5.3c8.2,0,14.2-1.4,17.8-4.2c3.6-2.8,5.4-7.3,5.4-13.6s-1.8-10.8-5.4-13.6
				c-3.6-2.8-9.5-4.2-17.8-4.2H319.3z M319.3,260.6h12.3v18.6h-52.4v-18.6h12.2v-78.2h-12.2v-17.8h54.2c15.2,0,26.3,2.9,33.2,8.6
				c7,5.7,10.5,14.7,10.5,27.1c0,12.5-3.5,21.8-10.6,27.7c-7.1,5.9-18.1,8.9-33.1,8.9h-14.1V260.6z"/>
		</g>
		<polygon fill="#666666" points="377.2,164.5 377.2,182.4 389.4,182.4 389.4,260.6 377.2,260.6 377.2,279.2 466.8,279.2 
			466.8,225.3 448.8,225.3 448.8,260.6 417.3,260.6 417.3,182.4 429.6,182.4 429.6,164.5 		"/>
		<g>
			<path fill="#666666" d="M372.6,337.6c-4.3-7.6-8.9-13.2-14-16.8c-5.1-3.6-11.1-5.3-17.9-5.3c-9.7,0-17.3,3.5-23,10.6
				c-5.6,7-8.4,16.7-8.4,28.9c0,12.3,2.8,22,8.5,29c5.6,7,13.4,10.5,23.2,10.5c8.1,0,15-2.5,20.7-7.4c5.7-4.9,10.1-12.1,13-21.6
				l20.3,9.8c-4.5,12.9-11.5,22.8-21,29.5c-9.5,6.8-21.2,10.2-35,10.2c-8.7,0-16.6-1.4-23.8-4.2c-7.2-2.8-13.7-7-19.3-12.5
				c-5.5-5.6-9.8-12-12.7-19.3c-2.9-7.3-4.4-15.1-4.4-23.6c0-8.8,1.4-16.8,4.2-24.1c2.8-7.3,7-13.6,12.5-19
				c5.5-5.4,11.7-9.5,18.7-12.3c7-2.7,14.6-4.1,22.8-4.1c7.6,0,14.3,1.2,20.2,3.6c5.9,2.4,11,5.9,15.4,10.7V298h17v39.6H372.6z"/>
		</g>
		<polygon fill="#666666" points="476.1,394.3 476.1,375.4 496.8,375.4 496.8,412.9 400.6,412.9 400.6,394.3 412.8,394.3 
			412.8,316.1 400.6,316.1 400.6,298.2 496.8,298.2 496.8,333.7 476.1,333.7 476.1,316.1 440.7,316.1 440.7,344.1 470,344.1 
			470,363 440.7,363 440.7,394.3 		"/>
		<path fill="#666666" d="M510.5,412.7v-39.3h18.3c0.1,7.3,1.9,12.9,5.3,16.6c3.4,3.8,8.4,5.7,14.9,5.7c4.5,0,8.1-1.1,10.8-3.4
			c2.7-2.3,4.1-5.2,4.1-8.8c0-3.4-1.1-6.4-3.4-8.9c-2.3-2.5-6.5-5.3-12.8-8.3l-16.3-8c-7.7-3.7-13.4-7.9-16.9-12.7
			c-3.5-4.8-5.3-10.6-5.3-17.4c0-9.4,3.1-17.1,9.2-23.2c6.2-6,14.1-9,23.8-9c4.7,0,9.1,0.7,13.1,2.1c4.1,1.4,8.1,3.6,12,6.7V298
			h18.6v34.1l-18.6-0.1c-0.1-5.3-1.7-9.7-4.9-13c-3.2-3.3-7.4-5-12.6-5c-3.9,0-7.1,1-9.5,3.1c-2.4,2.1-3.6,4.9-3.6,8.3
			c0,2.9,0.9,5.3,2.7,7.3c1.8,2,5,4.1,9.6,6.2l15,6.8c9.6,4.3,16.6,9.4,21.1,15.1c4.5,5.8,6.7,12.6,6.7,20.5
			c0,10.1-3.2,18.2-9.5,24.4c-6.3,6.2-14.7,9.3-25,9.3c-5.4,0-10.6-0.8-15.5-2.5c-4.9-1.7-9.2-4.1-12.9-7.2v7.3H510.5z"/>
		<polygon fill="#666666" points="493.5,164.5 493.5,182.4 509,182.4 483.8,260.6 471.2,260.6 471.2,279.2 520.6,279.2 520.6,260.6 
			507.7,260.6 530.8,181.7 553.8,260.6 541.2,260.6 541.2,279.2 592.2,279.2 592.2,260.6 581.8,260.6 556.3,182.4 570,182.4 
			570,164.5 		"/>
	</g>
</g>
</svg>
