<?xml version="1.0" encoding="utf-8"?>
<!-- Generator: Adobe Illustrator 18.1.0, SVG Export Plug-In . SVG Version: 6.00 Build 0)  -->
<svg version="1.1" xmlns="http://www.w3.org/2000/svg" xmlns:xlink="http://www.w3.org/1999/xlink" x="0px" y="0px"
	 viewBox="0 0 841.9 595.3" enable-background="new 0 0 841.9 595.3" xml:space="preserve">
<g id="RED_BG_-_does_not_print">
</g>
<g id="White">
	<g>
		<path fill="#666666" d="M100.9,363.7c0.6,7.7,5.5,10.3,9.6,10.3c5.3,0,10.1-3.9,10.1-9.7c0-7.9-4.8-9.3-13.9-13
			c-5.6-2.3-17.3-5.9-17.3-22.2c0-12.3,9.1-22,21.4-22c8.5,0,20.9,6.2,21.6,22h-13.8c-0.6-6.9-4.6-8.7-8.2-8.7
			c-4.2,0-7.5,3.2-7.5,7.8c0,6.7,4.7,8.1,12.1,10.7c6,2.1,19.1,7,19.1,23.7c0,16.7-12.2,24.6-23.6,24.6c-9.4,0-22.9-6.7-23.7-23.6
			H100.9z"/>
		<path fill="#666666" d="M170.8,328.8h0.2l8.3,22h-16.7L170.8,328.8z M135.3,385.7h14.1l8.5-22.6h26.1l8.6,22.6h14.1l-30.5-77
			h-10.6L135.3,385.7z"/>
		<path fill="#666666" d="M212.6,308.7h13.5v77h-13.5V308.7z"/>
		<path fill="#666666" d="M237.9,308.7h13.8l34.2,51v-51h13.5v77h-12.7l-35.1-53.9l-0.1,53.9h-13.5V308.7z"/>
		<path fill="#666666" d="M317.5,321.3h-13.5v-12.6h40.6v12.6h-13.6v64.4h-13.5V321.3z"/>
		<path fill="#666666" d="M341.9,346.1h27.4v12.3h-27.4V346.1z"/>
		<path fill="#666666" d="M409.5,346.5h47.6v1.6c0,21.9-18.2,39.1-38.6,39.1c-20.9,0-39.2-17-39.2-40.1c0-22.7,18.2-40.1,38.8-40.1
			c18.3,0,31.6,13.1,35.3,24.1h-16.2c-3.2-5.1-9.8-10.8-19.5-10.8c-16.4,0-25,14.8-25,26.9c0,11.7,8.4,26.7,25.7,26.7
			c8.9,0,17.3-5.2,21.5-14.2h-30.5V346.5z"/>
		<path fill="#666666" d="M561.4,350.5h7.1c11.8,0,12.5,8.7,12.5,11.8c0,7.8-7.3,10.1-12.8,10.1h-6.8V350.5z M547.9,385.7h19.5
			c4.7,0,13.3-0.5,18.8-4.6c4.4-3.3,9-9.1,9-18.4c0-13-7.7-17.3-12.5-19.1c2.3-1.3,8.2-5,8.2-14.7c0-5.3-2.6-11-6.2-14.4
			c-6.3-5.9-14.4-5.9-22.5-5.9h-14.3V385.7z M561.4,321.3h5.6c7.7,0,10.5,3.7,10.5,8.3c0,8.4-8.5,8.4-11.6,8.4h-4.4V321.3z"/>
		<path fill="#666666" d="M672.8,308.7h13.5v77h-13.5V308.7z"/>
	</g>
	<path fill="#666666" d="M418.1,220c10.9,0,19.8,8.9,19.8,19.8v45.2h18.3v-36.4c0-8.8,7.1-15.9,15.8-15.9c8.8,0,15.9,7.1,15.9,15.9
		v36.4h16v-24.5c0-8.8,7.1-15.9,15.9-15.9c8.7,0,15.8,7.1,15.8,15.9v24.5h16v-12.6c0-8.7,7.2-15.9,15.9-15.9
		c8.8,0,15.9,7.1,15.9,15.9v12.6h16.1v-32.6l-181.4-55.2l-181.5,55.2v32.6h16.2v-12.6c0-8.7,7.1-15.9,15.8-15.9
		c8.8,0,15.9,7.1,15.9,15.9v12.6h16v-24.5c0-8.8,7.1-15.9,15.9-15.9c8.7,0,15.8,7.1,15.8,15.9v24.5h16v-36.4
		c0-8.8,7.1-15.9,15.9-15.9c8.8,0,15.9,7.1,15.9,15.9v36.4h18.3v-45.2C398.3,228.9,407.2,220,418.1,220z"/>
	<path fill="#666666" d="M502,307.2c-22.1,0-40.1,17.9-40.1,40c0,22.1,17.9,40,40.1,40c22.1,0,40-17.9,40-40
		C542,325.1,524.1,307.2,502,307.2z M502,374c-14.8,0-26.8-12-26.8-26.7c0-14.8,12-26.8,26.8-26.8c14.7,0,26.7,12,26.7,26.8
		C528.7,362,516.7,374,502,374z"/>
	<path fill="#666666" d="M629.8,328.8h0.2l8.3,22h-16.7L629.8,328.8z M594.4,385.7h14.1l8.6-22.6h26.1l8.5,22.6h14.1l-30.6-77h-10.5
		L594.4,385.7z"/>
	<path fill="#666666" d="M698.3,308.5h13.7l34.2,51.1v-51.1h13.5v77.1H747l-35.1-54l0,54h-13.5V308.5z"/>
</g>
</svg>
