<?xml version="1.0" encoding="utf-8"?>
<!-- Generator: Adobe Illustrator 18.1.0, SVG Export Plug-In . SVG Version: 6.00 Build 0)  -->
<svg version="1.1" xmlns="http://www.w3.org/2000/svg" xmlns:xlink="http://www.w3.org/1999/xlink" x="0px" y="0px"
	 viewBox="0 0 841.9 595.3" enable-background="new 0 0 841.9 595.3" xml:space="preserve">
<g id="RED_BG_-_does_not_print">
</g>
<g id="White">
	<g>
		<path fill="#E6E6E6" d="M227.3,243c0-36,0-42.5-0.5-49.9c-0.5-7.8-2.3-11.5-9.9-13.1c-1.8-0.5-5.8-0.7-7.8-0.7
			c-0.9,0-1.9-0.5-1.9-1.4c0-1.4,1.2-1.8,3.7-1.8c10.4,0,24.9,0.7,26.1,0.7c2.5,0,20.1-0.7,27.2-0.7c14.5,0,30,1.4,42.2,10.2
			c5.8,4.2,15.9,15.5,15.9,31.4c0,17.1-7.2,34.2-27.9,53.3c18.9,24.2,34.6,44.8,48,59.1c12.5,13.2,22.4,15.7,28.1,16.6
			c4.4,0.7,7.6,0.7,9,0.7c1.2,0,2.1,0.7,2.1,1.4c0,1.4-1.4,1.8-5.5,1.8h-16.4c-12.9,0-18.7-1.1-24.7-4.4c-9.9-5.3-18-16.6-31.2-33.9
			c-9.7-12.7-20.5-28.1-25.2-34.1c-0.9-0.9-1.6-1.4-3-1.4l-28.4-0.5c-1.2,0-1.6,0.7-1.6,1.9v5.5c0,22.2,0,40.4,1.2,50.1
			c0.7,6.7,2.1,11.8,9,12.7c3.2,0.5,8.3,0.9,10.4,0.9c1.4,0,1.8,0.7,1.8,1.4c0,1.1-1.1,1.8-3.7,1.8c-12.7,0-27.2-0.7-28.4-0.7
			c-0.2,0-14.8,0.7-21.7,0.7c-2.5,0-3.7-0.4-3.7-1.8c0-0.7,0.5-1.4,1.9-1.4c2.1,0,4.8-0.5,6.9-0.9c4.6-0.9,5.8-6,6.7-12.7
			c1.1-9.7,1.1-27.9,1.1-50.1V243 M245.8,263.1c0,1.2,0.5,2.1,1.6,2.8c3.5,2.1,14.1,3.7,24.2,3.7c5.5,0,12-0.7,17.3-4.4
			c8.1-5.5,14.1-18,14.1-35.5c0-28.9-15.2-46.2-39.9-46.2c-6.9,0-13.2,0.7-15.5,1.4c-1.1,0.5-1.8,1.4-1.8,2.8V263.1z"/>
		<path fill="#E6E6E6" d="M498,291.7c0-18.7-1.2-21.2-10.4-23.8c-1.9-0.5-5.8-0.7-7.8-0.7c-0.9,0-1.9-0.5-1.9-1.4
			c0-1.4,1.2-1.8,3.7-1.8c10.4,0,24.9,0.7,26.1,0.7c1.2,0,15.7-0.7,22.6-0.7c2.5,0,3.7,0.5,3.7,1.8c0,0.9-0.9,1.4-1.8,1.4
			c-1.6,0-3,0.2-5.8,0.7c-6.2,1.2-8.1,5.1-8.5,13.1c-0.5,7.4-0.5,14.3-0.5,24v25.8c0,10.4-0.2,10.8-3,12.5
			c-14.8,7.9-35.5,10.4-48.9,10.4c-17.5,0-50.3-2.3-75.9-24.7c-14.1-12.2-27.5-36.9-27.5-65.8c0-36.9,18-63,38.5-75.9
			c20.8-12.9,43.6-14.5,61.4-14.5c14.5,0,30.9,3,35.3,3.9c4.9,1.2,12.9,2.1,18.7,2.3c2.3,0.2,2.8,1.2,2.8,2.1
			c0,3.2-1.6,9.7-1.6,32.8c0,3.7-0.5,4.8-2.1,4.8c-1.2,0-1.4-1.4-1.6-3.5c-0.2-3.2-1.4-9.7-4.8-15.2c-5.8-8.8-24.5-18.7-54.2-18.7
			c-14.5,0-31.9,1.4-49.4,15.2c-13.4,10.6-22.8,31.6-22.8,58.6c0,32.5,16.4,56.1,24.5,63.9c18.2,17.8,39.2,24.7,60.5,24.7
			c8.3,0,20.3-1.4,26.3-4.8c3-1.6,4.6-4.2,4.6-8.1V291.7"/>
		<path fill="#E6E6E6" d="M554.4,347.6c-3.2-1.6-3.5-2.5-3.5-8.8c0-11.5,0.9-20.8,1.1-24.5c0.2-2.5,0.7-3.7,1.8-3.7
			c1.4,0,1.6,0.7,1.6,2.5c0,2.1,0,5.3,0.7,8.5c3.5,17.1,18.7,23.5,34.2,23.5c22.2,0,33-15.9,33-30.7c0-15.9-6.7-25.2-26.5-41.5
			l-10.4-8.5c-24.5-20.1-30-34.4-30-50.1c0-24.7,18.5-41.5,47.8-41.5c9,0,15.7,0.9,21.5,2.3c4.4,0.9,6.2,1.2,8.1,1.2
			c1.8,0,2.3,0.5,2.3,1.6c0,1.1-0.9,8.8-0.9,24.5c0,3.7-0.5,5.3-1.6,5.3c-1.4,0-1.6-1.2-1.8-3c-0.2-2.8-1.6-9-3-11.5
			c-1.4-2.5-7.6-12.2-28.8-12.2c-15.9,0-28.4,9.9-28.4,26.8c0,13.2,6,21.5,28.2,38.8l6.5,5.1c27.2,21.5,33.7,35.8,33.7,54.2
			c0,9.5-3.7,27-19.6,38.3c-9.9,6.9-22.4,9.7-34.8,9.7C574.5,353.8,563.9,352.2,554.4,347.6"/>
		<path fill="#E6E6E6" d="M262.5,413.1h0.3c1.6-5.1,7.4-23,9.6-31c0.7-2.3,0.7-3.1,0.7-3.9c0-1.1-0.5-1.8-3.4-1.8
			c-0.4,0-0.6-0.4-0.6-0.6c0-0.3,0.3-0.4,1.1-0.4c3.3,0,6,0.1,6.6,0.1c0.4,0,3.2-0.1,5.2-0.1c0.6,0,0.9,0.1,0.9,0.4
			c0,0.3-0.1,0.6-0.6,0.6c-0.2,0-1.5,0.1-2.2,0.3c-1.9,0.7-2.9,3.1-4.2,6.6c-2.8,7.9-9.2,27.5-11.7,34.5c-1.7,4.6-2,5.3-2.8,5.3
			c-0.7,0-1.2-0.8-2.1-3.2L246.8,386c-2.2,5.4-10.9,28.1-13.2,33.8c-1.1,2.6-1.5,3.3-2.3,3.3c-0.7,0-1.2-0.7-2.5-4.9l-11.4-36.7
			c-1-3.3-1.7-4.1-3.4-4.7c-0.9-0.3-2.5-0.4-2.9-0.4c-0.3,0-0.6-0.2-0.6-0.6c0-0.3,0.4-0.4,1-0.4c3.4,0,6.9,0.1,7.6,0.1
			c0.6,0,3.5-0.1,6.7-0.1c0.9,0,1.2,0.1,1.2,0.4c0,0.4-0.4,0.6-0.7,0.6c-0.5,0-1.5,0-2.3,0.4c-0.4,0.1-0.9,0.5-0.9,1.3
			c0,0.8,0.5,3,1.2,5.8c1,3.9,7.6,26.7,8.4,29.2h0.1l13.4-34.6c1-2.5,1.4-2.8,1.7-2.8c0.4,0,0.9,0.8,1.8,2.9L262.5,413.1"/>
		<path fill="#E6E6E6" d="M308.8,374.6c14.4,0,25.4,8.8,25.4,23.2c0,13.8-10.3,25.3-25.7,25.3c-17.6,0-25.1-13.2-25.1-24.3
			C283.3,388.8,291.1,374.6,308.8,374.6 M310.2,420.6c5.7,0,17.3-3.1,17.3-21c0-14.9-9-22.7-19.2-22.7c-10.7,0-18.4,6.7-18.4,20.2
			C290,411.5,298.6,420.6,310.2,420.6"/>
		<path fill="#E6E6E6" d="M347,393.4c0-9.6,0-11.3-0.1-13.3c-0.1-2.1-0.5-3.1-2.6-3.4c-0.5-0.1-1.6-0.2-2.2-0.2l-0.5-0.5
			c0-0.4,0.3-0.5,1-0.5c2.9,0,7.2,0.1,7.6,0.1c0.6,0,6-0.1,8-0.1c4.1,0,8.6,0.4,11.9,2.7c1.6,1.2,4.5,4.2,4.5,8.5
			c0,4.6-1.9,9-7.9,14.1c5.3,6.6,9.7,12.2,13.4,16c3.4,3.5,5.5,4.1,7.1,4.3c1.2,0.2,1.9,0.2,2.3,0.2c0.4,0,0.6,0.3,0.6,0.5
			c0,0.4-0.4,0.5-1.5,0.5h-4c-3.6,0-5.2-0.4-6.8-1.2c-2.8-1.4-5.1-4.4-8.7-9.1c-2.7-3.4-5.5-7.3-6.9-9c-0.3-0.3-0.4-0.4-0.9-0.4
			l-8.2-0.1c-0.3,0-0.4,0.1-0.4,0.5v1.5c0,6,0,10.8,0.3,13.3c0.2,1.8,0.6,3,2.6,3.3c0.9,0.2,2.3,0.3,2.8,0.3c0.4,0,0.5,0.3,0.5,0.5
			c0,0.3-0.3,0.5-1,0.5c-3.5,0-7.6-0.2-7.9-0.2c-0.1,0-4.4,0.2-6.3,0.2c-0.7,0-1-0.2-1-0.5c0-0.2,0.2-0.5,0.5-0.5
			c0.6,0,1.4-0.1,2-0.3c1.2-0.3,1.4-1.4,1.7-3.3c0.4-2.6,0.4-7.4,0.4-13.4V393.4 M352.5,398.6c0,0.4,0.2,0.6,0.4,0.8
			c0.9,0.5,4.2,0.9,7.1,0.9c1.5,0,3.3-0.1,4.8-1.1c2.2-1.5,3.9-4.7,3.9-9.5c0-7.7-4.2-12.2-11.1-12.2c-1.9,0-3.9,0.2-4.6,0.4
			c-0.3,0.2-0.5,0.4-0.5,0.7V398.6z"/>
		<path fill="#E6E6E6" d="M395.5,416.5c-6.3-5.4-7.8-12.5-7.8-18.4c0-4.2,1.5-11.4,7.2-16.9c3.9-3.7,9.7-6.6,19.5-6.6
			c2.6,0,6.2,0.2,9.3,0.7c2.4,0.4,4.4,0.9,6.6,0.9c0.7,0,0.8,0.3,0.8,0.7c0,0.5-0.2,1.2-0.3,3.5c-0.1,2-0.1,5.5-0.1,6.3
			c-0.1,0.9-0.4,1.3-0.7,1.3c-0.4,0-0.5-0.4-0.5-1.3c0-2.4-1-4.9-2.7-6.2c-2.3-1.9-6.9-3.4-12.6-3.4c-8.2,0-12.2,2.2-14.4,4.3
			c-4.7,4.4-5.7,9.9-5.7,16.2c0,11.9,9.4,22.4,23.1,22.4c4.8,0,8-0.4,10.6-2.9c1.4-1.4,2.3-4,2.5-5.2c0.1-0.7,0.2-0.9,0.6-0.9
			c0.3,0,0.6,0.4,0.6,0.9c0,0.4-0.9,5.8-1.5,8c-0.4,1.2-0.5,1.4-1.6,1.8c-2.6,1-7.4,1.4-11.6,1.4C407,423.1,400.5,420.9,395.5,416.5
			"/>
		<path fill="#E6E6E6" d="M445.4,393.4c0-9.6,0-11.3-0.2-13.3c-0.1-2.1-0.5-3.1-2.6-3.4c-0.5-0.1-1.6-0.2-2.2-0.2l-0.5-0.5
			c0-0.4,0.3-0.5,1-0.5c2.9,0,7.1,0.1,7.4,0.1c0.4,0,13.8,0.1,15.3,0c1.2-0.1,2.4-0.3,2.9-0.4l0.9-0.3l0.3,0.6
			c0,0.4-0.4,1.2-0.5,2.9c-0.1,0.6-0.2,3.3-0.4,4.1l-0.6,0.7c-0.4,0-0.5-0.3-0.5-0.8c0-0.4-0.1-1.5-0.4-2.2c-0.4-1-1.1-1.4-4.6-1.9
			c-1.1-0.1-8.5-0.2-9.3-0.2c-0.3,0-0.4,0.2-0.4,0.7v16.8c0,0.4,0,0.7,0.4,0.7c0.8,0,9.3,0,10.7-0.1c1.5-0.1,2.5-0.2,3.1-0.9
			c0.4-0.4,0.7-0.8,1-0.8c0.2,0,0.4,0.1,0.4,0.5c0,0.4-0.4,1.4-0.5,3.4c-0.1,1.2-0.3,3.6-0.3,4c0,0.5-0.1,1.2-0.6,1.2
			c-0.3,0-0.4-0.2-0.4-0.6c0-0.6,0-1.2-0.3-2c-0.2-0.9-0.8-1.6-3.3-1.9c-1.8-0.2-8.6-0.3-9.7-0.3c-0.4,0-0.4,0.2-0.4,0.4v5.2
			c0,2.1-0.1,9.3,0,10.6c0.1,4.1,1.3,4.9,7.6,4.9c1.7,0,4.7,0,6.4-0.6c1.7-0.7,2.6-1.8,2.9-4.3c0.1-0.7,0.3-1,0.7-1
			c0.4,0,0.4,0.5,0.4,1c0,0.4-0.5,4.7-0.9,6c-0.4,1.6-1.1,1.6-3.6,1.6c-4.8,0-8.5-0.1-11.1-0.2c-2.7-0.1-4.4-0.1-5.3-0.1
			c-0.1,0-1.4,0-2.8,0.1c-1.2,0.1-2.7,0.2-3.7,0.2c-0.7,0-1-0.2-1-0.5c0-0.2,0.2-0.5,0.5-0.5c0.6,0,1.4-0.2,2-0.3
			c1.2-0.2,1.4-1.4,1.7-3.3c0.4-2.6,0.4-7.4,0.4-13.4V393.4"/>
		<path fill="#E6E6E6" d="M478.9,421.5c-0.9-0.4-0.9-0.7-0.9-2.3c0-3.1,0.3-5.5,0.3-6.6c0-0.7,0.2-1,0.5-1c0.4,0,0.6,0.2,0.6,0.7
			c0,0.5,0,1.4,0.2,2.3c1,4.5,5.8,6.1,10.1,6.1c6.3,0,9.6-3.6,9.6-8.2c0-4.4-2.4-6.6-8.1-10.8l-2.9-2.2c-6.9-5.2-9.2-9-9.2-13.3
			c0-7.3,5.8-11.7,14.2-11.7c2.5,0,5.1,0.4,6.6,0.7c1.2,0.3,1.7,0.3,2.2,0.3c0.5,0,0.7,0.1,0.7,0.4c0,0.3-0.3,2.3-0.3,6.6
			c0,0.9-0.1,1.4-0.5,1.4c-0.4,0-0.5-0.3-0.6-0.8c-0.1-0.7-0.6-2.4-1-3.1c-0.4-0.7-2.6-3.1-8.3-3.1c-4.7,0-8.5,2.3-8.5,6.7
			c0,3.9,2,6.2,8.3,10.5l1.8,1.2c7.8,5.3,10.5,9.6,10.5,14.9c0,3.6-1.4,7.6-6,10.6c-2.7,1.7-6.7,2.2-10.2,2.2
			C485.3,423.1,481.5,422.7,478.9,421.5"/>
		<path fill="#E6E6E6" d="M535.2,404.3c0,6,0,10.9,0.3,13.4c0.2,1.8,0.5,3,2.5,3.3c0.9,0.2,2.3,0.3,2.9,0.3c0.4,0,0.5,0.3,0.5,0.5
			c0,0.3-0.3,0.5-1,0.5c-3.5,0-7.6-0.2-7.9-0.2c-0.3,0-4.7,0.2-6.6,0.2c-0.7,0-1-0.2-1-0.5c0-0.2,0.1-0.5,0.5-0.5
			c0.6,0,1.3-0.1,1.9-0.3c1.3-0.3,1.7-1.5,1.9-3.3c0.3-2.6,0.3-7.4,0.3-13.4v-26l-9.3,0.2c-4,0.1-5.5,0.5-6.5,2
			c-0.7,1.1-0.8,1.5-1,2c-0.1,0.5-0.4,0.6-0.6,0.6c-0.1,0-0.5-0.2-0.5-0.5c0-0.7,1.3-6.2,1.4-6.7c0.1-0.4,0.4-1.2,0.7-1.2
			c0.4,0,1.1,0.5,2.8,0.7c1.8,0.2,4.3,0.3,5,0.3h24.2c2.1,0,3.6-0.1,4.6-0.3c1-0.2,1.5-0.3,1.8-0.3c0.3,0,0.3,0.4,0.3,0.7
			c0,1.9-0.2,6.3-0.2,7.1c0,0.5-0.3,0.8-0.6,0.8c-0.3,0-0.4-0.2-0.5-1.1l-0.1-0.7c-0.2-1.9-1.6-3.3-7.7-3.4l-8-0.2V404.3"/>
		<path fill="#E6E6E6" d="M565.5,393.4c0-9.6,0-11.3-0.1-13.3c-0.2-2.1-0.5-3.1-2.6-3.4c-0.5-0.1-1.6-0.2-2.2-0.2L560,376
			c0-0.4,0.3-0.5,1-0.5c2.9,0,7.1,0.1,7.4,0.1c0.4,0,13.9,0.1,15.3,0c1.2-0.1,2.4-0.3,2.9-0.4l0.9-0.3l0.3,0.6
			c0,0.4-0.4,1.2-0.5,2.9c-0.1,0.6-0.2,3.3-0.4,4.1l-0.6,0.7c-0.4,0-0.5-0.3-0.5-0.8c0-0.4-0.1-1.5-0.4-2.2c-0.4-1-1.1-1.4-4.6-1.9
			c-1.1-0.1-8.5-0.2-9.2-0.2c-0.3,0-0.4,0.2-0.4,0.7v16.8c0,0.4,0,0.7,0.4,0.7c0.8,0,9.2,0,10.7-0.1c1.5-0.1,2.5-0.2,3.1-0.9
			c0.4-0.4,0.7-0.8,0.9-0.8c0.2,0,0.4,0.1,0.4,0.5c0,0.4-0.4,1.4-0.5,3.4c-0.1,1.2-0.3,3.6-0.3,4c0,0.5-0.1,1.2-0.6,1.2
			c-0.3,0-0.5-0.2-0.5-0.6c0-0.6,0-1.2-0.3-2c-0.2-0.9-0.8-1.6-3.3-1.9c-1.7-0.2-8.6-0.3-9.7-0.3c-0.4,0-0.4,0.2-0.4,0.4v5.2
			c0,2.1-0.1,9.3,0,10.6c0.1,4.1,1.3,4.9,7.6,4.9c1.7,0,4.7,0,6.4-0.6c1.7-0.7,2.6-1.8,2.9-4.3c0.1-0.7,0.3-1,0.6-1
			c0.4,0,0.4,0.5,0.4,1c0,0.4-0.5,4.7-0.9,6c-0.4,1.6-1.1,1.6-3.6,1.6c-4.8,0-8.5-0.1-11.2-0.2c-2.7-0.1-4.4-0.1-5.3-0.1
			c-0.1,0-1.4,0-2.8,0.1c-1.2,0.1-2.7,0.2-3.7,0.2c-0.6,0-1-0.2-1-0.5c0-0.2,0.1-0.5,0.5-0.5c0.6,0,1.4-0.2,2-0.3
			c1.2-0.2,1.4-1.4,1.7-3.3c0.4-2.6,0.4-7.4,0.4-13.4V393.4"/>
		<path fill="#E6E6E6" d="M603.2,393.4c0-9.6,0-11.3-0.1-13.3c-0.2-2.1-0.5-3.1-2.6-3.4c-0.5-0.1-1.6-0.2-2.2-0.2l-0.5-0.5
			c0-0.4,0.3-0.5,1-0.5c2.9,0,7.2,0.1,7.6,0.1c0.7,0,6-0.1,8-0.1c4.1,0,8.6,0.4,12,2.7c1.6,1.2,4.4,4.2,4.4,8.5
			c0,4.6-1.9,9-7.9,14.1c5.2,6.6,9.7,12.2,13.4,16c3.4,3.5,5.5,4.1,7.1,4.3c1.2,0.2,1.9,0.2,2.3,0.2c0.4,0,0.6,0.3,0.6,0.5
			c0,0.4-0.4,0.5-1.5,0.5h-4c-3.6,0-5.2-0.4-6.8-1.2c-2.8-1.4-5.1-4.4-8.7-9.1c-2.7-3.4-5.6-7.3-6.9-9c-0.3-0.3-0.4-0.4-0.9-0.4
			l-8.2-0.1c-0.3,0-0.4,0.1-0.4,0.5v1.5c0,6,0,10.8,0.3,13.3c0.2,1.8,0.6,3,2.5,3.3c0.9,0.2,2.3,0.3,2.8,0.3c0.4,0,0.5,0.3,0.5,0.5
			c0,0.3-0.3,0.5-1,0.5c-3.5,0-7.6-0.2-7.9-0.2c-0.1,0-4.4,0.2-6.3,0.2c-0.7,0-1-0.2-1-0.5c0-0.2,0.1-0.5,0.5-0.5
			c0.6,0,1.4-0.1,2-0.3c1.2-0.3,1.4-1.4,1.7-3.3c0.4-2.6,0.4-7.4,0.4-13.4V393.4 M608.8,398.6c0,0.4,0.1,0.6,0.4,0.8
			c0.9,0.5,4.2,0.9,7.1,0.9c1.5,0,3.3-0.1,4.8-1.1c2.2-1.5,3.9-4.7,3.9-9.5c0-7.7-4.2-12.2-11.1-12.2c-1.9,0-3.9,0.2-4.6,0.4
			c-0.3,0.2-0.5,0.4-0.5,0.7V398.6z"/>
	</g>
	<path fill="#666666" d="M213.4,231.7c0-36,0-42.5-0.5-49.9c-0.5-7.8-2.3-11.5-9.9-13.1c-1.8-0.5-5.8-0.7-7.8-0.7
		c-0.9,0-1.9-0.5-1.9-1.4c0-1.4,1.2-1.8,3.7-1.8c10.4,0,24.9,0.7,26.1,0.7c2.5,0,20.1-0.7,27.2-0.7c14.5,0,30,1.4,42.2,10.2
		c5.8,4.2,15.9,15.5,15.9,31.4c0,17.1-7.2,34.2-27.9,53.3c18.9,24.2,34.6,44.8,48,59.1c12.5,13.2,22.4,15.7,28.1,16.6
		c4.4,0.7,7.6,0.7,9,0.7c1.2,0,2.1,0.7,2.1,1.4c0,1.4-1.4,1.8-5.5,1.8h-16.4c-12.9,0-18.7-1.1-24.7-4.4c-9.9-5.3-18-16.6-31.2-33.9
		c-9.7-12.7-20.5-28.1-25.2-34.1c-0.9-0.9-1.6-1.4-3-1.4l-28.4-0.5c-1.2,0-1.6,0.7-1.6,1.9v5.5c0,22.2,0,40.4,1.2,50.1
		c0.7,6.7,2.1,11.8,9,12.7c3.2,0.5,8.3,0.9,10.4,0.9c1.4,0,1.8,0.7,1.8,1.4c0,1.1-1.1,1.8-3.7,1.8c-12.7,0-27.2-0.7-28.4-0.7
		c-0.2,0-14.8,0.7-21.7,0.7c-2.5,0-3.7-0.4-3.7-1.8c0-0.7,0.5-1.4,1.9-1.4c2.1,0,4.8-0.5,6.9-0.9c4.6-0.9,5.8-6,6.7-12.7
		c1.1-9.7,1.1-27.9,1.1-50.1V231.7 M231.8,251.7c0,1.2,0.5,2.1,1.6,2.8c3.5,2.1,14.1,3.7,24.2,3.7c5.5,0,12-0.7,17.3-4.4
		c8.1-5.5,14.1-18,14.1-35.5c0-28.9-15.2-46.2-39.9-46.2c-6.9,0-13.2,0.7-15.5,1.4c-1.1,0.5-1.8,1.4-1.8,2.8V251.7z"/>
	<path fill="#666666" d="M484.1,280.3c0-18.7-1.2-21.2-10.4-23.8c-1.9-0.5-5.8-0.7-7.8-0.7c-0.9,0-1.9-0.5-1.9-1.4
		c0-1.4,1.2-1.8,3.7-1.8c10.4,0,24.9,0.7,26.1,0.7c1.2,0,15.7-0.7,22.6-0.7c2.5,0,3.7,0.5,3.7,1.8c0,0.9-0.9,1.4-1.8,1.4
		c-1.6,0-3,0.2-5.8,0.7c-6.2,1.2-8.1,5.1-8.5,13.1c-0.5,7.4-0.5,14.3-0.5,24v25.8c0,10.4-0.2,10.8-3,12.5
		c-14.8,7.9-35.5,10.4-48.9,10.4c-17.5,0-50.3-2.3-75.9-24.7c-14.1-12.2-27.5-36.9-27.5-65.8c0-36.9,18-63,38.5-75.9
		c20.8-12.9,43.6-14.5,61.4-14.5c14.5,0,30.9,3,35.3,3.9c4.9,1.2,12.9,2.1,18.7,2.3c2.3,0.2,2.8,1.2,2.8,2.1c0,3.2-1.6,9.7-1.6,32.8
		c0,3.7-0.5,4.8-2.1,4.8c-1.2,0-1.4-1.4-1.6-3.5c-0.2-3.2-1.4-9.7-4.8-15.2C489,180,470.3,170,440.5,170c-14.5,0-31.9,1.4-49.4,15.2
		c-13.4,10.6-22.8,31.6-22.8,58.6c0,32.5,16.4,56.1,24.5,63.9c18.2,17.8,39.2,24.7,60.5,24.7c8.3,0,20.3-1.4,26.3-4.8
		c3-1.6,4.6-4.2,4.6-8.1V280.3"/>
	<path fill="#666666" d="M540.5,336.2c-3.2-1.6-3.5-2.5-3.5-8.8c0-11.5,0.9-20.8,1.1-24.5c0.2-2.5,0.7-3.7,1.8-3.7
		c1.4,0,1.6,0.7,1.6,2.5c0,2.1,0,5.3,0.7,8.5c3.5,17.1,18.7,23.5,34.2,23.5c22.2,0,33-15.9,33-30.7c0-15.9-6.7-25.2-26.5-41.5
		l-10.4-8.5c-24.5-20.1-30-34.4-30-50.1c0-24.7,18.5-41.5,47.8-41.5c9,0,15.7,0.9,21.5,2.3c4.4,0.9,6.2,1.2,8.1,1.2
		c1.8,0,2.3,0.5,2.3,1.6c0,1.1-0.9,8.8-0.9,24.5c0,3.7-0.5,5.3-1.6,5.3c-1.4,0-1.6-1.2-1.8-3c-0.2-2.8-1.6-9-3-11.5
		c-1.4-2.5-7.6-12.2-28.8-12.2c-15.9,0-28.4,9.9-28.4,26.8c0,13.2,6,21.5,28.2,38.8l6.5,5.1c27.2,21.5,33.7,35.8,33.7,54.2
		c0,9.5-3.7,27-19.6,38.3c-9.9,6.9-22.4,9.7-34.8,9.7C560.6,342.4,549.9,340.8,540.5,336.2"/>
	<path fill="#666666" d="M248.6,401.8h0.3c1.6-5.1,7.4-23,9.6-31c0.7-2.3,0.7-3.1,0.7-3.9c0-1.1-0.5-1.8-3.4-1.8
		c-0.4,0-0.6-0.4-0.6-0.6c0-0.3,0.3-0.4,1.1-0.4c3.3,0,6,0.1,6.6,0.1c0.4,0,3.2-0.1,5.2-0.1c0.6,0,0.9,0.1,0.9,0.4
		c0,0.3-0.1,0.6-0.6,0.6c-0.2,0-1.5,0.1-2.2,0.3c-1.9,0.7-2.9,3.1-4.2,6.6c-2.8,7.9-9.2,27.5-11.7,34.5c-1.7,4.6-2,5.3-2.8,5.3
		c-0.7,0-1.2-0.8-2.1-3.2l-12.5-33.9c-2.2,5.4-10.9,28.1-13.2,33.8c-1.1,2.6-1.5,3.3-2.3,3.3c-0.7,0-1.2-0.7-2.5-4.9l-11.4-36.7
		c-1-3.3-1.7-4.1-3.4-4.7c-0.9-0.3-2.5-0.4-2.9-0.4c-0.3,0-0.6-0.2-0.6-0.6c0-0.3,0.4-0.4,1-0.4c3.4,0,6.9,0.1,7.6,0.1
		c0.6,0,3.5-0.1,6.7-0.1c0.9,0,1.2,0.1,1.2,0.4c0,0.4-0.4,0.6-0.7,0.6c-0.5,0-1.5,0-2.3,0.4c-0.4,0.1-0.9,0.5-0.9,1.3
		c0,0.8,0.5,3,1.2,5.8c1,3.9,7.6,26.7,8.4,29.2h0.1l13.4-34.6c1-2.5,1.4-2.8,1.7-2.8c0.4,0,0.9,0.8,1.8,2.9L248.6,401.8"/>
	<path fill="#666666" d="M294.9,363.2c14.4,0,25.4,8.8,25.4,23.2c0,13.8-10.3,25.3-25.7,25.3c-17.6,0-25.1-13.2-25.1-24.3
		C269.4,377.4,277.1,363.2,294.9,363.2 M296.3,409.2c5.7,0,17.3-3.1,17.3-21c0-14.9-9-22.7-19.2-22.7c-10.7,0-18.4,6.7-18.4,20.2
		C276,400.2,284.7,409.2,296.3,409.2"/>
	<path fill="#666666" d="M333.1,382c0-9.6,0-11.3-0.1-13.3c-0.1-2.1-0.5-3.1-2.6-3.4c-0.5-0.1-1.6-0.2-2.2-0.2l-0.5-0.5
		c0-0.4,0.3-0.5,1-0.5c2.9,0,7.2,0.1,7.6,0.1c0.6,0,6-0.1,8-0.1c4.1,0,8.6,0.4,11.9,2.7c1.6,1.2,4.5,4.2,4.5,8.5
		c0,4.6-1.9,9-7.9,14.1c5.3,6.6,9.7,12.2,13.4,16c3.4,3.5,5.5,4.1,7.1,4.3c1.2,0.2,1.9,0.2,2.3,0.2c0.4,0,0.6,0.3,0.6,0.5
		c0,0.4-0.4,0.5-1.5,0.5h-4c-3.6,0-5.2-0.4-6.8-1.2c-2.8-1.4-5.1-4.4-8.7-9.1c-2.7-3.4-5.5-7.3-6.9-9c-0.3-0.3-0.4-0.4-0.9-0.4
		l-8.2-0.1c-0.3,0-0.4,0.1-0.4,0.5v1.5c0,6,0,10.8,0.3,13.3c0.2,1.8,0.6,3,2.6,3.3c0.9,0.2,2.3,0.3,2.8,0.3c0.4,0,0.5,0.3,0.5,0.5
		c0,0.3-0.3,0.5-1,0.5c-3.5,0-7.6-0.2-7.9-0.2c-0.1,0-4.4,0.2-6.3,0.2c-0.7,0-1-0.2-1-0.5c0-0.2,0.2-0.5,0.5-0.5
		c0.6,0,1.4-0.1,2-0.3c1.2-0.3,1.4-1.4,1.7-3.3c0.4-2.6,0.4-7.4,0.4-13.4V382 M338.6,387.3c0,0.4,0.2,0.6,0.4,0.8
		c0.9,0.5,4.2,0.9,7.1,0.9c1.5,0,3.3-0.1,4.8-1.1c2.2-1.5,3.9-4.7,3.9-9.5c0-7.7-4.2-12.2-11.1-12.2c-1.9,0-3.9,0.2-4.6,0.4
		c-0.3,0.2-0.5,0.4-0.5,0.7V387.3z"/>
	<path fill="#666666" d="M381.6,405.1c-6.3-5.4-7.8-12.5-7.8-18.4c0-4.2,1.5-11.4,7.2-16.9c3.9-3.7,9.7-6.6,19.5-6.6
		c2.6,0,6.2,0.2,9.3,0.7c2.4,0.4,4.4,0.9,6.6,0.9c0.7,0,0.8,0.3,0.8,0.7c0,0.5-0.2,1.2-0.3,3.5c-0.1,2-0.1,5.5-0.1,6.3
		c-0.1,0.9-0.4,1.3-0.7,1.3c-0.4,0-0.5-0.4-0.5-1.3c0-2.4-1-4.9-2.7-6.2c-2.3-1.9-6.9-3.4-12.6-3.4c-8.2,0-12.2,2.2-14.4,4.3
		c-4.7,4.4-5.7,9.9-5.7,16.2c0,11.9,9.4,22.4,23.1,22.4c4.8,0,8-0.4,10.6-2.9c1.4-1.4,2.3-4,2.5-5.2c0.1-0.7,0.2-0.9,0.6-0.9
		c0.3,0,0.6,0.4,0.6,0.9c0,0.4-0.9,5.8-1.5,8c-0.4,1.2-0.5,1.4-1.6,1.8c-2.6,1-7.4,1.4-11.6,1.4
		C393.1,411.8,386.6,409.5,381.6,405.1"/>
	<path fill="#666666" d="M431.4,382c0-9.6,0-11.3-0.2-13.3c-0.1-2.1-0.5-3.1-2.6-3.4c-0.5-0.1-1.6-0.2-2.2-0.2l-0.5-0.5
		c0-0.4,0.3-0.5,1-0.5c2.9,0,7.1,0.1,7.4,0.1c0.4,0,13.8,0.1,15.3,0c1.2-0.1,2.4-0.3,2.9-0.4l0.9-0.3l0.3,0.6c0,0.4-0.4,1.2-0.5,2.9
		c-0.1,0.6-0.2,3.3-0.4,4.1l-0.6,0.7c-0.4,0-0.5-0.3-0.5-0.8c0-0.4-0.1-1.5-0.4-2.2c-0.4-1-1.1-1.4-4.6-1.9
		c-1.1-0.1-8.5-0.2-9.3-0.2c-0.3,0-0.4,0.2-0.4,0.7v16.8c0,0.4,0,0.7,0.4,0.7c0.8,0,9.3,0,10.7-0.1c1.5-0.1,2.5-0.2,3.1-0.9
		c0.4-0.4,0.7-0.8,1-0.8c0.2,0,0.4,0.1,0.4,0.5c0,0.4-0.4,1.4-0.5,3.4c-0.1,1.2-0.3,3.6-0.3,4c0,0.5-0.1,1.2-0.6,1.2
		c-0.3,0-0.4-0.2-0.4-0.6c0-0.6,0-1.2-0.3-2c-0.2-0.9-0.8-1.6-3.3-1.9c-1.8-0.2-8.6-0.3-9.7-0.3c-0.4,0-0.4,0.2-0.4,0.4v5.2
		c0,2.1-0.1,9.3,0,10.6c0.1,4.1,1.3,4.9,7.6,4.9c1.7,0,4.7,0,6.4-0.6c1.7-0.7,2.6-1.8,2.9-4.3c0.1-0.7,0.3-1,0.7-1
		c0.4,0,0.4,0.5,0.4,1c0,0.4-0.5,4.7-0.9,6c-0.4,1.6-1.1,1.6-3.6,1.6c-4.8,0-8.5-0.1-11.1-0.2c-2.7-0.1-4.4-0.1-5.3-0.1
		c-0.1,0-1.4,0-2.8,0.1c-1.2,0.1-2.7,0.2-3.7,0.2c-0.7,0-1-0.2-1-0.5c0-0.2,0.2-0.5,0.5-0.5c0.6,0,1.4-0.2,2-0.3
		c1.2-0.2,1.4-1.4,1.7-3.3c0.4-2.6,0.4-7.4,0.4-13.4V382"/>
	<path fill="#666666" d="M465,410.1c-0.9-0.4-0.9-0.7-0.9-2.3c0-3.1,0.3-5.5,0.3-6.6c0-0.7,0.2-1,0.5-1c0.4,0,0.6,0.2,0.6,0.7
		c0,0.5,0,1.4,0.2,2.3c1,4.5,5.8,6.1,10.1,6.1c6.3,0,9.6-3.6,9.6-8.2c0-4.4-2.4-6.6-8.1-10.8l-2.9-2.2c-6.9-5.2-9.2-9-9.2-13.3
		c0-7.3,5.8-11.7,14.2-11.7c2.5,0,5.1,0.4,6.6,0.7c1.2,0.3,1.7,0.3,2.2,0.3c0.5,0,0.7,0.1,0.7,0.4c0,0.3-0.3,2.3-0.3,6.6
		c0,0.9-0.1,1.4-0.5,1.4c-0.4,0-0.5-0.3-0.6-0.8c-0.1-0.7-0.6-2.4-1-3.1c-0.4-0.7-2.6-3.1-8.3-3.1c-4.7,0-8.5,2.3-8.5,6.7
		c0,3.9,2,6.2,8.3,10.5l1.8,1.2c7.8,5.3,10.5,9.6,10.5,14.9c0,3.6-1.4,7.6-6,10.6c-2.7,1.7-6.7,2.2-10.2,2.2
		C471.3,411.8,467.6,411.3,465,410.1"/>
	<path fill="#666666" d="M521.2,392.9c0,6,0,10.9,0.3,13.4c0.2,1.8,0.5,3,2.5,3.3c0.9,0.2,2.3,0.3,2.9,0.3c0.4,0,0.5,0.3,0.5,0.5
		c0,0.3-0.3,0.5-1,0.5c-3.5,0-7.6-0.2-7.9-0.2c-0.3,0-4.7,0.2-6.6,0.2c-0.7,0-1-0.2-1-0.5c0-0.2,0.1-0.5,0.5-0.5
		c0.6,0,1.3-0.1,1.9-0.3c1.3-0.3,1.7-1.5,1.9-3.3c0.3-2.6,0.3-7.4,0.3-13.4v-26l-9.3,0.2c-4,0.1-5.5,0.5-6.5,2c-0.7,1.1-0.8,1.5-1,2
		c-0.1,0.5-0.4,0.6-0.6,0.6c-0.1,0-0.5-0.2-0.5-0.5c0-0.7,1.3-6.2,1.4-6.7c0.1-0.4,0.4-1.2,0.7-1.2c0.4,0,1.1,0.5,2.8,0.7
		c1.8,0.2,4.3,0.3,5,0.3h24.2c2.1,0,3.6-0.1,4.6-0.3c1-0.2,1.5-0.3,1.8-0.3c0.3,0,0.3,0.4,0.3,0.7c0,1.9-0.2,6.3-0.2,7.1
		c0,0.5-0.3,0.8-0.6,0.8c-0.3,0-0.4-0.2-0.5-1.1l-0.1-0.7c-0.2-1.9-1.6-3.3-7.7-3.4l-8-0.2V392.9"/>
	<path fill="#666666" d="M551.6,382c0-9.6,0-11.3-0.1-13.3c-0.2-2.1-0.5-3.1-2.6-3.4c-0.5-0.1-1.6-0.2-2.2-0.2l-0.5-0.5
		c0-0.4,0.3-0.5,1-0.5c2.9,0,7.1,0.1,7.4,0.1c0.4,0,13.9,0.1,15.3,0c1.2-0.1,2.4-0.3,2.9-0.4l0.9-0.3l0.3,0.6c0,0.4-0.4,1.2-0.5,2.9
		c-0.1,0.6-0.2,3.3-0.4,4.1l-0.6,0.7c-0.4,0-0.5-0.3-0.5-0.8c0-0.4-0.1-1.5-0.4-2.2c-0.4-1-1.1-1.4-4.6-1.9
		c-1.1-0.1-8.5-0.2-9.2-0.2c-0.3,0-0.4,0.2-0.4,0.7v16.8c0,0.4,0,0.7,0.4,0.7c0.8,0,9.2,0,10.7-0.1c1.5-0.1,2.5-0.2,3.1-0.9
		c0.4-0.4,0.7-0.8,0.9-0.8c0.2,0,0.4,0.1,0.4,0.5c0,0.4-0.4,1.4-0.5,3.4c-0.1,1.2-0.3,3.6-0.3,4c0,0.5-0.1,1.2-0.6,1.2
		c-0.3,0-0.5-0.2-0.5-0.6c0-0.6,0-1.2-0.3-2c-0.2-0.9-0.8-1.6-3.3-1.9c-1.7-0.2-8.6-0.3-9.7-0.3c-0.4,0-0.4,0.2-0.4,0.4v5.2
		c0,2.1-0.1,9.3,0,10.6c0.1,4.1,1.3,4.9,7.6,4.9c1.7,0,4.7,0,6.4-0.6c1.7-0.7,2.6-1.8,2.9-4.3c0.1-0.7,0.3-1,0.6-1
		c0.4,0,0.4,0.5,0.4,1c0,0.4-0.5,4.7-0.9,6c-0.4,1.6-1.1,1.6-3.6,1.6c-4.8,0-8.5-0.1-11.2-0.2c-2.7-0.1-4.4-0.1-5.3-0.1
		c-0.1,0-1.4,0-2.8,0.1c-1.2,0.1-2.7,0.2-3.7,0.2c-0.6,0-1-0.2-1-0.5c0-0.2,0.1-0.5,0.5-0.5c0.6,0,1.4-0.2,2-0.3
		c1.2-0.2,1.4-1.4,1.7-3.3c0.4-2.6,0.4-7.4,0.4-13.4V382"/>
	<path fill="#666666" d="M589.3,382c0-9.6,0-11.3-0.1-13.3c-0.2-2.1-0.5-3.1-2.6-3.4c-0.5-0.1-1.6-0.2-2.2-0.2l-0.5-0.5
		c0-0.4,0.3-0.5,1-0.5c2.9,0,7.2,0.1,7.6,0.1c0.7,0,6-0.1,8-0.1c4.1,0,8.6,0.4,12,2.7c1.6,1.2,4.4,4.2,4.4,8.5c0,4.6-1.9,9-7.9,14.1
		c5.2,6.6,9.7,12.2,13.4,16c3.4,3.5,5.5,4.1,7.1,4.3c1.2,0.2,1.9,0.2,2.3,0.2c0.4,0,0.6,0.3,0.6,0.5c0,0.4-0.4,0.5-1.5,0.5h-4
		c-3.6,0-5.2-0.4-6.8-1.2c-2.8-1.4-5.1-4.4-8.7-9.1c-2.7-3.4-5.6-7.3-6.9-9c-0.3-0.3-0.4-0.4-0.9-0.4l-8.2-0.1
		c-0.3,0-0.4,0.1-0.4,0.5v1.5c0,6,0,10.8,0.3,13.3c0.2,1.8,0.6,3,2.5,3.3c0.9,0.2,2.3,0.3,2.8,0.3c0.4,0,0.5,0.3,0.5,0.5
		c0,0.3-0.3,0.5-1,0.5c-3.5,0-7.6-0.2-7.9-0.2c-0.1,0-4.4,0.2-6.3,0.2c-0.7,0-1-0.2-1-0.5c0-0.2,0.1-0.5,0.5-0.5
		c0.6,0,1.4-0.1,2-0.3c1.2-0.3,1.4-1.4,1.7-3.3c0.4-2.6,0.4-7.4,0.4-13.4V382 M594.8,387.3c0,0.4,0.1,0.6,0.4,0.8
		c0.9,0.5,4.2,0.9,7.1,0.9c1.5,0,3.3-0.1,4.8-1.1c2.2-1.5,3.9-4.7,3.9-9.5c0-7.7-4.2-12.2-11.1-12.2c-1.9,0-3.9,0.2-4.6,0.4
		c-0.3,0.2-0.5,0.4-0.5,0.7V387.3z"/>
</g>
</svg>
