<?xml version="1.0" encoding="utf-8"?>
<!-- Generator: Adobe Illustrator 18.1.0, SVG Export Plug-In . SVG Version: 6.00 Build 0)  -->
<svg version="1.1" xmlns="http://www.w3.org/2000/svg" xmlns:xlink="http://www.w3.org/1999/xlink" x="0px" y="0px"
	 viewBox="0 0 841.9 595.3" enable-background="new 0 0 841.9 595.3" xml:space="preserve">
<g id="RED_BG_-_does_not_print">
</g>
<g id="White">
	<path fill="#666666" d="M745.6,321.8h2c1.3,0,2.4-0.2,2.4-1.7c0-1.3-1.3-1.5-2.4-1.5h-2V321.8z M749.9,328.3l-2.9-4.9h-1.5v4.9
		h-2.1V317h4.3c2.8,0,4.3,0.9,4.3,3.3c0,2.1-1.3,2.9-2.9,3.1l3,5H749.9z M739.4,322.5c0,4.5,3.7,8.2,8,8.2s8-3.7,8-8.2
		s-3.7-8.2-8-8.2S739.4,317.9,739.4,322.5 M737,322.5c0-5.8,4.7-10.5,10.5-10.5c5.8,0,10.5,4.7,10.5,10.5c0,5.8-4.7,10.5-10.5,10.5
		C741.7,332.9,737,328.3,737,322.5 M711,368.4V352h3.4l10.9,11.8V352h3.1v16.4h-2.9L714,356.1v12.3H711z M688.6,360.3
		c0-4.5,2.5-8.7,9.8-8.7c7.2,0,9.7,4.2,9.7,8.7c0,3.4-2,8.5-9.7,8.5C690.6,368.8,688.6,363.7,688.6,360.3 M698.4,366
		c3.1,0,6.6-1.3,6.6-5.9c0-3.9-2.8-5.8-6.6-5.8c-3.7,0-6.6,1.9-6.6,5.8C691.8,364.8,695.3,366,698.4,366 M682.4,368.4V352h3.2v16.4
		H682.4z M669.3,368.4v-13.6H662V352h17.8v2.7h-7.3v13.6H669.3z M656.2,352h3.2v16.4h-3.2V352z M636,368.4V352h9.8
		c3.9,0,6.7,0.9,6.7,4.9c0,3-2.2,4.7-4.6,4.8l5,6.7H649l-4.7-6.4h-5.1v6.4H636z M639.2,359.3h6.2c2.6,0,3.9-0.4,3.9-2.3
		c0-1.9-1.3-2.3-3.9-2.3h-6.2V359.3z M623.1,368.4v-13.6h-7.3V352h17.8v2.7h-7.3v13.6H623.1z M613.4,352v9.3c0,5.3-3.4,7.4-8.7,7.4
		c-5.3,0-8.7-2.2-8.7-7.4V352h3.2v9.1c0,2.7,1,4.9,5.5,4.9c4.5,0,5.5-2.2,5.5-4.9V352H613.4z M574.7,368.4V352h3.4l10.9,11.8V352
		h3.1v16.4h-2.9l-11.4-12.3v12.3H574.7z M563.6,356l-3,1c-0.5-1.5-1.8-2.7-5.7-2.7c-2.2,0-4.3,0.5-4.3,2.1c0,0.7,0.4,1.4,3.7,1.8
		l3.9,0.6c3.7,0.6,5.8,2,5.8,4.7c0,3.9-3.7,5.3-8.1,5.3c-7,0-8.7-3.5-9.1-4.7l3.1-1c0.6,1.2,1.8,2.9,6.1,2.9c2.6,0,4.8-0.9,4.8-2.3
		c0-1.1-1.2-1.8-3.6-2l-3.9-0.5c-3.8-0.5-5.9-2.2-5.9-4.7c0-4.9,6.4-4.9,7.6-4.9C561.9,351.6,563.2,354.9,563.6,356 M534.9,368.4
		v-13.6h-7.3V352h17.8v2.7h-7.3v13.6H534.9z M509,368.4V352h9.8c3.9,0,6.7,0.9,6.7,4.9c0,3-2.2,4.7-4.6,4.8l5,6.7h-3.9l-4.8-6.4
		h-5.1v6.4H509z M512.2,359.3h6.2c2.6,0,3.9-0.4,3.9-2.3c0-1.9-1.3-2.3-3.9-2.3h-6.2V359.3z M486.7,360.3c0-4.5,2.5-8.7,9.8-8.7
		c7.2,0,9.7,4.2,9.7,8.7c0,3.4-2,8.5-9.7,8.5C488.7,368.8,486.7,363.7,486.7,360.3 M496.5,366c3.1,0,6.6-1.3,6.6-5.9
		c0-3.9-2.8-5.8-6.6-5.8c-3.7,0-6.6,1.9-6.6,5.8C489.9,364.8,493.4,366,496.5,366 M472.2,359.3h6.6c1.8,0,3.4-0.2,3.4-2.3
		c0-2.1-1.6-2.3-3.4-2.3h-6.6V359.3z M469,368.4V352h9.1c2.8,0,7.3,0,7.3,5c0,5-4.5,5-7.3,5h-5.9v6.4H469z M466,356l-3,1
		c-0.5-1.5-1.8-2.7-5.7-2.7c-2.2,0-4.3,0.5-4.3,2.1c0,0.7,0.4,1.4,3.7,1.8l3.9,0.6c3.7,0.6,5.8,2,5.8,4.7c0,3.9-3.7,5.3-8.1,5.3
		c-7,0-8.7-3.5-9.1-4.7l3.1-1c0.6,1.2,1.8,2.9,6.1,2.9c2.6,0,4.8-0.9,4.8-2.3c0-1.1-1.2-1.8-3.6-2l-3.9-0.5
		c-3.8-0.5-5.9-2.2-5.9-4.7c0-4.9,6.4-4.9,7.6-4.9C464.4,351.6,465.6,354.9,466,356 M424.6,368.4V352h14.7v2.7h-11.5v3.8h9.9v2.7
		h-9.9v4.3h11.8v2.7H424.6z M411.7,368.4v-13.6h-7.3V352h17.8v2.7h-7.3v13.6H411.7z M387,368.4L395,352h3.6l8,16.4h-3.4l-1.7-3.8
		h-9.4l-1.7,3.8H387z M393.4,361.9h6.9l-3.4-7.3L393.4,361.9z M374.2,368.4c0,0,0,0-5.3-12.4v12.4h-2.8V352h4.3l5.1,12.1l5.2-12.1
		h4.2v16.4h-2.8c0,0,0,0,0-12.4l-5.2,12.4H374.2z M358.9,352h3.2v16.4h-3.2V352z M345.8,368.4v-13.6h-7.3V352h17.8v2.7H349v13.6
		H345.8z M327,368.4V352h3.2v13.5H342v2.8H327z M323.1,352v9.3c0,5.3-3.4,7.4-8.7,7.4c-5.3,0-8.7-2.2-8.7-7.4V352h3.2v9.1
		c0,2.7,1,4.9,5.5,4.9s5.5-2.2,5.5-4.9V352H323.1z M305.7,282.2v-85.6h42.7l0,85.6c0,0.4-0.3,22.9,25,22.9
		c25.2,0,24.7-22.5,24.6-22.9v-85.7h42.7v85.6c0,18.6-5.6,55-67.4,55C311.6,337.2,305.7,300.9,305.7,282.2 M631.9,196.6l53.2,75.6
		v-75.6h40.8v135.6H685l-52.8-74.9v74.9h-40.8V196.6H631.9z M570.8,237.3l-9.1,0.5c-10.3-0.1-20.6,0.6-30.9,1.1c0,0-2-5.6-2.5-6.5
		c-3.7-7.2-11-10.6-19.1-10.6c-15.7,0-15.9,9.3-15.9,10.8c0,19.9,82.5,6,82.5,58.5c0,27.2-21.9,46.1-66.1,46.1
		c-40.7,0-55.2-17.2-60.4-39.3l-1.6-7.9c0,0,9.2-0.5,9.2-0.6c10.8-0.5,21.7-1.3,32.5-1.9c0,0,1.4,7,1.9,8.4
		c3.8,10.3,13,14.7,23.9,14.7c13.2,0,18.2-5.1,18.2-16.5c0-7.1-10-10.7-15.4-12.3c-24.6-6.1-64.3-11.8-64.3-45.9
		c0-30.6,29.4-39.3,57.9-39.3c31,0,53.3,9.4,58.1,32.9L570.8,237.3z M149.7,319.6c2.4-1.1,4.8-2.5,6.7-4.3l1.7-0.3
		c2.1-4.5-0.7-6.8-1.7-10c-1.6-5.3,2.4-11.7-7-11.7h-5.2c-2.6,0-3.1,0.3-4.9,2C137.4,298.7,144.6,317,149.7,319.6 M148.1,260.1
		c-2,2.4-4.3,5.2-5,8.3l-0.7,1c0,0-1.5,10.3-2,15.3c2.8,0.5,5.2,0.9,7.3,1.2c1-0.2,1.7-0.1,2.4-0.3c1.6-0.5,3.3-0.4,5-0.9
		c2.1-4.7,1.6-10.5,3-15.1c0.5-1.7,1.4-3.8,0.7-5.6C158.7,263.9,149.6,259.8,148.1,260.1 M230.7,283.5c3.2-7.7-5.9-20.1-11.7-25.3
		c-1.3,0.5-9.8,6.1-9.3,7.7l2.7,8.7c0.2,0.5,1,1.3,1.3,1.7c-0.7,1.4,0.2,6.3,1,7.7c0.4-0.7,13.2,0.3,15,0.3L230.7,283.5z
		 M210.4,313.1c0.6,0.7,1.8,1,2.7,1l1,1c2.3,0.3,4.3,1.9,6.7,2.3c2.2-0.9,6.2-6.3,6-8.7c0.9,0.3,0.9-2.1,1.7-3
		c-0.2-0.3,4.5-11.9,3-13.2c-15.6-1.2-14.8-5.2-19,13.2C212,307.4,209.1,311.4,210.4,313.1 M208.2,319.6c-3.1,3.5-5.1,8.7-7.7,12.7
		c6.5-0.3,11.3-4.9,16-7.7C215.4,323.5,208.9,319.2,208.2,319.6 M202.4,246c-5.4-2.6,2,10,3,11.3c0.8,1.1,1.6-0.5,2.3-0.7
		c1.7-0.4,5.7-1.8,6.7-3.3C214.2,250.4,205,246.3,202.4,246 M198.4,316.8c0-1.4-9.2-2.1-10.3-2c-1.7,0.9-0.7,6.4,0,7.7
		c-0.5,0.2-0.3,8.9-0.3,10.3c0.5,0.6,0.9,2.2,2,1.7C192.3,333,204.9,317.5,198.4,316.8 M170,333c-2.9-3.8-4.1-9.5-7.7-12.3
		c-0.4,0-0.8-0.1-1,0.3c-1.5-0.1-6.1,2.6-7.3,3.7C154,327.5,166.5,333,170,333 M180.9,316.1c-2.9-2-6.6-0.5-9.7,0.3
		c-0.1,0.9-2.5,1.8-3.3,1.7c3,4,5.6,13.6,9,16l1.3,0.3l1-0.3C181.1,332.5,182.3,318.3,180.9,316.1 M180.9,294.5
		c-1.4-4.4-15.1-1.4-18-1.7c-0.7,0.3-1.4,1-1.7,1.7c0.8,3.3,3,15.6,5.3,17.3c5.1-1,10-3,14.7-5.3
		C181.2,302.5,180.9,298.6,180.9,294.5 M207.8,292.1c-4.7-1.3-13.8-0.8-18.3,0.7c-2,2.9-3.3,10.9-1,13.3c5,2.5,9,3.6,14.7,4.3
		C208,305.6,204.4,295.9,207.8,292.1 M181.4,285.8l-0.1-4.8c-0.3-20.6-7.2-6.6-15.7-14.6c-2.1,3.8-2.4,6.8-3,11
		c-1.3,8.9,2.6,8.6,10.6,7.8C177.9,284.8,178.1,285.5,181.4,285.8 M189,285.3c2.5,0,17.8,0.9,17.4-2.3c-0.6-5.8-1.1-11.9-5-16.7
		C188,273.9,185.3,265.3,189,285.3 M170.9,253.8c-1.3,1.3-1.5,3.3-2.7,4.7c0,3.9,0.9,0.7,1.7,2.7c2.2,0.3,9.5,3.2,11,0.7
		c0.8-2.8,0-5.9-0.4-8.7c-0.3-2.3,1.7-8.5-0.6-10C176,240.5,170.1,251.1,170.9,253.8 M199,260.4c-4.3-4.3-2.8-16.2-11-18
		c-2.8,0-1.3,6.6-1.3,8.2C187,260.4,186.2,267.3,199,260.4 M161.9,257.6l1.3-1c0.4-1.1,1.6-3.2,1.3-4.3c1.6-3.4,3.7-3.5,3.7-7.7
		c-3.1,2.3-18.5,7-11.6,10.7C156.7,255.3,161.6,257.8,161.9,257.6 M209.5,342.3c-7.5,0.9-15.5,1.4-23.5,1.4
		c-5.7,0-11.4-0.3-16.8-0.8c6.5,6.8,13.7,13,20.4,17.5C196.5,355.5,203,349.5,209.5,342.3 M253.4,249.4c20.9,9.9,34,24.3,34,40.4
		c0,16.2-13.1,30.6-34.3,40.5c0.8,19.3-4.6,35.4-15,44c0.1,0.6,0.1,1.3,0.1,1.9c0,8.1-6.6,14.7-14.7,14.7c-6.8,0-12.6-4.6-14.3-10.9
		c-8.3-1.7-16.7-5.6-25.5-11.7c-18.2,11.8-36.3,15.6-49.6,7.9c-13.4-7.8-19.4-25.4-18.1-47.4C96.7,319,84.7,305,84.7,289.7
		c0-3.8,0.8-7.5,2.2-11.1c-2.6-2.6-4.2-6-4.2-10c0-8.1,6.6-14.7,14.7-14.7c3.2,0,6.2,1,8.6,2.8c3.3-2.3,6.7-4.3,10.7-6.3
		c-1.8-23.6,4.4-42.6,18.7-50.5c13.5-7.5,31.9-3.5,49.9,8.8c18.4-12.1,36.4-16.1,49.9-8.3c2.2-1.3,4.6-2.1,7.4-2.1
		c8.1,0,14.7,6.6,14.7,14.7c0,4.7-2.1,8.7-5.5,11.4C253.6,231.7,254.1,240.2,253.4,249.4 M249.6,332c-10.5,4.5-23,7.8-36.4,9.8
		c-6.7,8-13.7,14.7-20.9,20.4c6.3,3.9,12.1,6.4,18.1,7.8c2.3-5,7.3-8.5,13.2-8.5c4.4,0,8.2,1.8,10.9,4.8
		C243.8,359.9,249.1,347.5,249.6,332 M180.7,366.2c-8.8-6.5-17.5-15-25.7-25.1c-10.7-1.8-20.6-4.6-29.4-8.1
		c-0.1,17.2,5.3,30.8,16.1,37.1C152.2,376.2,166.2,374.3,180.7,366.2 M117,318.1c1.5-9.4,4.4-19.6,8.2-29.8
		c-4.4-12.1-7.1-23.3-8.3-34.2c-2.9,1.7-5.5,3.5-7.9,5.4c1.9,2.5,3,5.7,3,9.1c0,8.1-6.6,14.7-14.7,14.7c-1.2,0-2.4-0.2-3.5-0.4
		c-0.1,1-0.2,2.2-0.2,3.3C93.7,298.4,102.6,309.6,117,318.1 M182.1,210.9c-14.4-8.4-28.5-10.7-39.2-4.8
		c-11.6,6.4-17.2,21.4-16.8,40.1c8.4-3.3,17.3-5.8,27.4-7.6C162.5,227.3,172.2,217.9,182.1,210.9 M251.6,319.9
		c16.2-8.7,26.7-20.6,26.7-33.7c0-12.8-9.1-24.3-24.7-32.9c-1.2,11.4-4.5,23.7-9.5,36.3C247.9,300,250.3,310.2,251.6,319.9
		 M247.1,227c-1.4,0.5-3,0.7-4.5,0.7c-8.1,0-14.7-6.6-14.7-14.7c0-1.9,0.3-3.4,0.9-5c-10.1-3.2-22.4-0.5-35.2,7
		c7.7,6.3,15,14.1,22.1,23.1c12.7,2.1,24.3,5.4,34.4,9.8C250.1,240.1,249.2,233,247.1,227 M250.6,251.5c-9.1-4.5-20.6-8.4-32.6-10.7
		c5.9,6,10.6,11,15.4,19.4c5.3,9.3,7.1,16.5,9.5,25.9C247.3,273.9,250,262.1,250.6,251.5 M242.8,293c-3,9.1-4.4,12.5-8.5,19.8
		c-4.1,7.4-6.9,11.1-12.6,17.8c10-2.2,19.2-5.3,27-9.1C248,312.7,246,302.9,242.8,293 M130.7,301.5c-2.2,7.4-3.7,14.6-4.5,21.4
		c6.2,2.8,12.8,5,20.2,6.9c-4.5-5.9-5.7-8.2-8.8-13.7C134.7,310.5,133.5,308.2,130.7,301.5 M151.3,241.3c-9.1,1.9-17.6,4.6-25,7.9
		c0.4,8,2.1,17,4.6,25.9c3.3-10.1,4.4-12.5,8.9-19.6C143.5,249.5,145.5,247.1,151.3,241.3 M190.5,216.7c-7.7,5-14.9,11-22.3,19
		c6.1-0.6,12-1.6,18.5-1.6c8.9,0,17.3,2.4,25.5,3.5C205.4,229.4,197.8,222.2,190.5,216.7"/>
</g>
</svg>
