<?xml version="1.0" encoding="utf-8"?>
<!-- Generator: Adobe Illustrator 18.1.0, SVG Export Plug-In . SVG Version: 6.00 Build 0)  -->
<svg version="1.1" xmlns="http://www.w3.org/2000/svg" xmlns:xlink="http://www.w3.org/1999/xlink" x="0px" y="0px"
	 viewBox="0 0 841.9 595.3" enable-background="new 0 0 841.9 595.3" xml:space="preserve">
<g id="RED_BG_-_does_not_print">
</g>
<g id="White">
	<g>
		<polygon fill="#666666" points="111.7,281.9 111.7,292.1 81.5,292.1 81.5,281.9 88.1,281.9 88.1,239.1 81.5,239.1 81.5,229.3 
			132,229.3 132,248.8 120.8,248.8 120.8,239.1 103.3,239.1 103.3,254.5 116.4,254.5 116.4,264.8 103.3,264.8 103.3,281.9 		"/>
		<path fill="#666666" d="M156.9,239.1v15.4h4.1c4.1,0,7.1-0.6,8.8-1.8c1.8-1.2,2.6-3.2,2.6-5.9c0-2.7-0.9-4.7-2.7-5.9
			c-1.8-1.2-4.7-1.8-8.8-1.8H156.9z M156.9,281.9h6.7v10.2h-28.7v-10.2h6.7v-42.8h-6.7v-9.8h29.7c8.4,0,14.6,1.4,18.3,4.2
			c3.7,2.8,5.6,7.3,5.6,13.5c0,4-0.9,7.3-2.7,9.9c-1.8,2.5-4.4,4.2-7.9,5.1l10.1,20h7.2v10.2h-17.6l-14.2-27.7h-6.5V281.9z"/>
		<polygon fill="#666666" points="197.6,229.3 197.6,239.1 204.2,239.1 204.2,281.9 197.6,281.9 197.6,292.2 250,292.2 250,271.6 
			238.7,271.6 238.7,281.9 219.4,281.9 219.4,264.8 235.4,264.8 235.4,254.5 219.4,254.5 219.4,239.1 238.7,239.1 238.7,248.8 
			250,248.8 250,229.3 		"/>
		<polygon fill="#666666" points="252.2,229.3 252.2,239.1 258.6,239.1 258.6,281.9 252.2,281.9 252.2,292.2 279.8,292.2 
			279.8,281.9 273.3,281.9 273.3,239.1 279.8,239.1 279.8,229.3 		"/>
		<path fill="#666666" d="M330.6,251c-2.4-4.2-5-7.3-7.9-9.2c-2.8-1.9-6.1-2.9-9.8-2.9c-5.4,0-9.7,1.9-12.8,5.8
			c-3.1,3.9-4.7,9.1-4.7,15.8c0,6.8,1.6,12.1,4.7,15.9c3.1,3.9,7.4,5.8,12.9,5.8c4.3,0,7.8-1,10.5-3.1c2.7-2.1,4.3-4.9,4.6-8.5h-11
			v-10.2h26.8v1.9c0,9.7-2.8,17.3-8.5,22.8c-5.7,5.5-13.5,8.3-23.5,8.3c-4.8,0-9.2-0.8-13.3-2.3c-4-1.5-7.6-3.8-10.7-6.8
			c-3-3-5.4-6.5-7-10.5c-1.6-4-2.4-8.3-2.4-13c0-4.8,0.8-9.2,2.3-13.1c1.6-4,3.9-7.5,6.9-10.5c3-2.9,6.5-5.2,10.3-6.7
			c3.9-1.5,8.1-2.3,12.7-2.3c4.2,0,7.9,0.7,11.2,1.9c3.3,1.3,6.1,3.2,8.5,5.8v-6.7h9.3V251H330.6z"/>
		<polygon fill="#666666" points="377.2,229.3 377.2,239.1 383,239.1 383,253.5 364.9,253.5 364.9,239.1 370.8,239.1 370.8,229.3 
			342.9,229.3 342.9,239.1 349.6,239.1 349.6,281.9 342.9,281.9 342.9,292.2 370.8,292.2 370.8,281.9 364.9,281.9 364.9,263.7 
			383,263.7 383,281.9 377.2,281.9 377.2,292.2 405,292.2 405,281.9 398.2,281.9 398.2,239.1 405,239.1 405,229.3 		"/>
		<polygon fill="#666666" points="407.7,229.3 407.7,253.8 417.8,253.8 417.8,239.1 426.5,239.1 426.5,281.9 417.9,281.9 
			417.9,292.2 450.4,292.2 450.4,281.9 441.8,281.9 441.8,239.1 450.6,239.1 450.6,253.8 460.7,253.8 460.7,229.3 		"/>
		<path fill="#666666" d="M485.2,239.1v15.4h4.1c4.1,0,7.1-0.6,8.8-1.8c1.8-1.2,2.6-3.2,2.6-5.9c0-2.7-0.9-4.7-2.7-5.9
			c-1.8-1.2-4.7-1.8-8.8-1.8H485.2z M485.2,281.9h6.7v10.2h-28.7v-10.2h6.7v-42.8h-6.7v-9.8h29.7c8.4,0,14.6,1.4,18.3,4.2
			c3.7,2.8,5.6,7.3,5.6,13.5c0,4-0.9,7.3-2.7,9.9c-1.8,2.5-4.4,4.2-7.9,5.1l10.1,20h7.2v10.2h-17.6l-14.2-27.7h-6.5V281.9z"/>
		<path fill="#666666" d="M552.5,282.1c4.7,0,8.6-2,11.5-5.9c2.9-4,4.4-9.2,4.4-15.7c0-6.5-1.4-11.7-4.3-15.7
			c-2.9-3.9-6.7-5.9-11.5-5.9c-4.8,0-8.6,2-11.5,5.9c-2.9,3.9-4.4,9.1-4.4,15.7c0,6.5,1.5,11.7,4.4,15.7
			C543.9,280.2,547.7,282.1,552.5,282.1z M553,228.2c4.6,0,8.9,0.8,12.8,2.3c3.9,1.6,7.3,3.9,10.3,6.9c3,3,5.2,6.5,6.8,10.5
			c1.5,4,2.3,8.3,2.3,12.9c0,4.6-0.8,8.9-2.3,12.9c-1.5,4-3.8,7.5-6.8,10.5c-3,3-6.5,5.3-10.5,6.9c-4,1.6-8.3,2.3-13.1,2.3
			c-4.7,0-9.1-0.8-13-2.3c-4-1.5-7.5-3.8-10.5-6.8c-3-3.1-5.3-6.6-6.9-10.6c-1.6-4-2.3-8.3-2.3-12.9c0-4.7,0.8-9.1,2.3-12.9
			c1.5-3.9,3.8-7.3,6.9-10.3c3.1-3.1,6.7-5.4,10.8-7C543.7,229,548.2,228.2,553,228.2z"/>
		<path fill="#666666" d="M588.4,239.1h-6.9v-9.8h28.6v9.8h-6.3v28.6c0,4.9,0.7,8.6,2.2,11c1.5,2.4,3.7,3.6,6.8,3.6
			c3.1,0,5.4-1.2,6.9-3.6c1.5-2.4,2.3-6,2.3-11v-28.6h-6.1v-9.8h27.5v9.8h-6.9v27.1c0,4.5-0.2,8.2-0.7,10.8
			c-0.5,2.7-1.2,4.8-2.2,6.5c-2.1,3.5-4.8,6-8.2,7.6c-3.4,1.6-7.7,2.4-12.9,2.4c-5.1,0-9.3-0.8-12.8-2.4c-3.4-1.6-6.1-4.1-8.2-7.6
			c-1.1-1.7-1.8-3.9-2.3-6.5c-0.5-2.7-0.7-6.3-0.7-10.8V239.1z"/>
		<polygon fill="#666666" points="645.6,229.3 645.6,253.8 655.7,253.8 655.7,239.1 664.4,239.1 664.4,281.9 655.8,281.9 
			655.8,292.2 688.3,292.2 688.3,281.9 679.6,281.9 679.6,239.1 688.4,239.1 688.4,253.8 698.6,253.8 698.6,229.3 		"/>
		<polygon fill="#666666" points="703,229.3 703,239.1 709.6,239.1 709.6,281.9 703,281.9 703,292.2 755.4,292.2 755.4,271.6 
			744.1,271.6 744.1,281.9 724.8,281.9 724.8,264.8 740.8,264.8 740.8,254.5 724.8,254.5 724.8,239.1 744.1,239.1 744.1,248.8 
			755.4,248.8 755.4,229.3 		"/>
		<rect x="81.1" y="304.2" width="674.4" height="10.2"/>
		<rect x="81.1" y="304.2" fill="#666666" width="674.4" height="10.2"/>
		
			<text transform="matrix(1 0 0 1 176.1258 361.1027)" fill="#666666" font-family="'Humanist777BT-LightItalicB'" font-size="44.1711">The Pallet Delivery System</text>
	</g>
</g>
</svg>
